<svg width="60" height="60" viewBox="0 0 60 60" fill="none" xmlns="http://www.w3.org/2000/svg">
<path fill-rule="evenodd" clip-rule="evenodd" d="M10.9096 10.9091C7.89716 10.9091 5.45508 13.3512 5.45508 16.3636V43.6364C5.45508 46.6489 7.89716 49.0909 10.9096 49.0909H49.0914C52.104 49.0909 54.546 46.6489 54.546 43.6364V16.3636C54.546 13.3512 52.104 10.9091 49.0914 10.9091H10.9096ZM49.0913 17.7272C49.0913 16.974 48.4807 16.3635 47.7277 16.3635H12.2731C11.52 16.3635 10.9095 16.974 10.9095 17.7272V42.2726C10.9095 43.0257 11.52 43.6362 12.2731 43.6362H47.7277C48.4807 43.6362 49.0913 43.0257 49.0913 42.2726V17.7272ZM33.7406 33.2304L30.001 35.8525L26.5612 33.4384L20.8189 36.724C19.4847 37.4874 17.7842 36.8718 17.2478 35.4312C16.8224 34.2885 17.2868 33.0059 18.3451 32.4004L22.0274 30.2934L18.0423 27.529C17.0702 26.8546 16.7179 25.5824 17.2047 24.504C17.8354 23.1066 19.5792 22.6238 20.8389 23.4977L30.001 29.8537L39.163 23.4977C40.4227 22.6238 42.1665 23.1066 42.7973 24.504C43.2841 25.5824 42.9318 26.8546 41.9595 27.5289L38.176 30.1536L41.7795 32.3873C42.8033 33.0219 43.222 34.301 42.7714 35.418C42.1965 36.8428 40.4764 37.4057 39.1706 36.5962L33.7406 33.2304Z" fill="white"/>
<mask id="mask0" mask-type="alpha" maskUnits="userSpaceOnUse" x="5" y="10" width="50" height="40">
<path fill-rule="evenodd" clip-rule="evenodd" d="M10.9096 10.9091C7.89716 10.9091 5.45508 13.3512 5.45508 16.3636V43.6364C5.45508 46.6489 7.89716 49.0909 10.9096 49.0909H49.0914C52.104 49.0909 54.546 46.6489 54.546 43.6364V16.3636C54.546 13.3512 52.104 10.9091 49.0914 10.9091H10.9096ZM49.0913 17.7272C49.0913 16.974 48.4807 16.3635 47.7277 16.3635H12.2731C11.52 16.3635 10.9095 16.974 10.9095 17.7272V42.2726C10.9095 43.0257 11.52 43.6362 12.2731 43.6362H47.7277C48.4807 43.6362 49.0913 43.0257 49.0913 42.2726V17.7272ZM33.7406 33.2304L30.001 35.8525L26.5612 33.4384L20.8189 36.724C19.4847 37.4874 17.7842 36.8718 17.2478 35.4312C16.8224 34.2885 17.2868 33.0059 18.3451 32.4004L22.0274 30.2934L18.0423 27.529C17.0702 26.8546 16.7179 25.5824 17.2047 24.504C17.8354 23.1066 19.5792 22.6238 20.8389 23.4977L30.001 29.8537L39.163 23.4977C40.4227 22.6238 42.1665 23.1066 42.7973 24.504C43.2841 25.5824 42.9318 26.8546 41.9595 27.5289L38.176 30.1536L41.7795 32.3873C42.8033 33.0219 43.222 34.301 42.7714 35.418C42.1965 36.8428 40.4764 37.4057 39.1706 36.5962L33.7406 33.2304Z" fill="white"/>
</mask>
<g mask="url(#mask0)">
</g>
</svg>
