<svg width="42" height="42" viewBox="0 0 42 42" fill="none" xmlns="http://www.w3.org/2000/svg">
<circle cx="21" cy="21" r="20" stroke="#09BD51" stroke-width="2"/>
<path fill-rule="evenodd" clip-rule="evenodd" d="M33.086 13.9285H31.6645V9.82144C31.6645 9.60357 31.5782 9.3947 31.4243 9.24056C31.2704 9.08645 31.0618 9 30.8442 9H25.3752C23.6037 9.00059 21.9547 9.90472 21.0002 11.3991C20.0457 9.90472 18.3967 9.0006 16.6253 9H11.1563C10.9387 9 10.7301 9.08645 10.5762 9.24056C10.4223 9.39467 10.3359 9.60355 10.3359 9.82144V13.9285H8.91404C8.40645 13.9285 7.9195 14.1304 7.56055 14.4898C7.20156 14.8493 7 15.3369 7 15.8452V30.0834C7 30.5917 7.20156 31.0793 7.56055 31.4387C7.91953 31.7982 8.40645 32 8.91404 32H33.086C33.5936 32 34.0805 31.7982 34.4395 31.4387C34.7984 31.0792 35 30.5917 35 30.0834V15.8452C35 15.3369 34.7984 14.8493 34.4395 14.4898C34.0805 14.1304 33.5936 13.9285 33.086 13.9285ZM25.3755 10.6429H30.0239V26.5238H25.3755C24.0542 26.5242 22.7827 27.0295 21.8208 27.9366V14.2026C21.8219 13.2589 22.1967 12.3542 22.8632 11.6869C23.5296 11.0196 24.4331 10.6443 25.3755 10.6431V10.6429ZM11.977 10.6429H16.6254C17.5678 10.644 18.4713 11.0193 19.1377 11.6867C19.8041 12.354 20.1789 13.2587 20.1801 14.2023V27.9364C19.2182 27.0293 17.9467 26.5239 16.6254 26.5235H11.977V10.6429ZM8.64106 30.0831V15.8449C8.64106 15.6937 8.76352 15.5711 8.9145 15.5711H10.3364V27.3449C10.3364 27.5628 10.4227 27.7717 10.5766 27.9258C10.7305 28.0799 10.9391 28.1664 11.1567 28.1664H16.6257C17.3273 28.167 18.0132 28.3753 18.597 28.7648C19.1808 29.1546 19.6367 29.7085 19.9069 30.3568H8.91499C8.76401 30.3568 8.64155 30.2342 8.64155 30.083L8.64106 30.0831ZM33.36 30.0831C33.36 30.1556 33.3313 30.2252 33.2799 30.2767C33.2285 30.3281 33.159 30.3569 33.0865 30.3569H22.0946C22.3649 29.7086 22.8207 29.1547 23.4045 28.7649C23.9883 28.3753 24.6743 28.167 25.3758 28.1664H30.8448C31.0624 28.1664 31.271 28.08 31.4249 27.9259C31.5788 27.7717 31.6651 27.5629 31.6651 27.345V15.5711H33.087C33.1595 15.5711 33.229 15.5999 33.2804 15.6513C33.3317 15.7027 33.3605 15.7724 33.3605 15.8449L33.36 30.0831ZM24.2815 22.1426H27.5627C27.8559 22.1426 28.1266 21.986 28.2731 21.7319C28.4197 21.4779 28.4197 21.1646 28.2731 20.9105C28.1266 20.6565 27.8559 20.4998 27.5627 20.4998H24.2815C23.9883 20.4998 23.7176 20.6565 23.5711 20.9105C23.4244 21.1646 23.4244 21.4779 23.5711 21.7319C23.7176 21.986 23.9883 22.1426 24.2815 22.1426ZM27.5627 18.8572H24.2815C23.9883 18.8572 23.7176 18.7005 23.5711 18.4465C23.4244 18.1924 23.4244 17.8791 23.5711 17.6251C23.7176 17.371 23.9883 17.2144 24.2815 17.2144H27.5627C27.8559 17.2144 28.1266 17.371 28.2731 17.6251C28.4197 17.8791 28.4197 18.1924 28.2731 18.4465C28.1266 18.7005 27.8559 18.8572 27.5627 18.8572ZM24.2815 15.5712H27.5627C27.8559 15.5712 28.1266 15.4146 28.2731 15.1605C28.4197 14.9065 28.4197 14.5932 28.2731 14.3391C28.1266 14.0851 27.8559 13.9284 27.5627 13.9284H24.2815C23.9883 13.9284 23.7176 14.0851 23.5711 14.3391C23.4244 14.5932 23.4244 14.9065 23.5711 15.1605C23.7176 15.4146 23.9883 15.5712 24.2815 15.5712ZM18.2992 20.7406C18.4531 20.8947 18.5394 21.1036 18.5394 21.3214C18.5394 21.5393 18.4531 21.7482 18.2992 21.9023C18.1453 22.0564 17.9367 22.1429 17.7191 22.1429H14.4378C14.1447 22.1429 13.874 21.9862 13.7275 21.7322C13.5808 21.4781 13.5808 21.1648 13.7275 20.9108C13.874 20.6567 14.1447 20.5 14.4378 20.5H17.7191C17.9367 20.5 18.1453 20.5865 18.2992 20.7406ZM14.438 18.8572H17.7193C18.0124 18.8572 18.2831 18.7005 18.4296 18.4465C18.5763 18.1924 18.5763 17.8791 18.4296 17.6251C18.2831 17.371 18.0124 17.2144 17.7193 17.2144H14.438C14.1449 17.2144 13.8742 17.371 13.7277 17.6251C13.581 17.8791 13.581 18.1924 13.7277 18.4465C13.8742 18.7005 14.1449 18.8572 14.438 18.8572ZM17.7193 15.5712H14.438C14.1449 15.5712 13.8742 15.4146 13.7277 15.1605C13.581 14.9065 13.581 14.5932 13.7277 14.3391C13.8742 14.0851 14.1449 13.9284 14.438 13.9284H17.7193C18.0124 13.9284 18.2831 14.0851 18.4296 14.3391C18.5763 14.5932 18.5763 14.9065 18.4296 15.1605C18.2831 15.4146 18.0124 15.5712 17.7193 15.5712Z" fill="#09BD51"/>
</svg>
