<svg width="24" height="24" viewBox="0 0 24 24" fill="none" xmlns="http://www.w3.org/2000/svg">
<g clip-path="url(#clip0_11614_40691)">
<path d="M11.9981 24C8.81659 23.9963 5.76648 22.7308 3.51684 20.4812C1.26721 18.2316 0.00173553 15.1815 -0.00195312 12C0.00173553 8.81853 1.26721 5.76843 3.51684 3.51879C5.76648 1.26916 8.81659 0.00368866 11.9981 0C15.1771 0.00737387 18.2236 1.27447 20.4703 3.52371C22.7169 5.77294 23.9804 8.82094 23.9841 12C23.9804 15.1791 22.7169 18.2271 20.4703 20.4763C18.2236 22.7255 15.1771 23.9926 11.9981 24ZM11.9981 1.26272C9.15125 1.26567 6.42189 2.39786 4.4089 4.41086C2.39591 6.42385 1.26372 9.1532 1.26076 12C1.26372 14.8468 2.39591 17.5762 4.4089 19.5891C6.42189 21.6021 9.15125 22.7343 11.9981 22.7373C14.8449 22.7343 17.5742 21.6021 19.5872 19.5891C21.6002 17.5762 22.7324 14.8468 22.7353 12C22.7324 9.1532 21.6002 6.42385 19.5872 4.41086C17.5742 2.39786 14.8449 1.26567 11.9981 1.26272Z" fill="#BD1E2D"/>
<path d="M14.9338 17.4922L16.6508 17.4504C17.0132 17.4504 17.2864 17.0211 17.2836 16.4664L17.2251 7.54656C17.2392 7.25049 17.1395 6.96023 16.9463 6.73541C16.8983 6.68586 16.8406 6.64669 16.7768 6.62032C16.7131 6.59395 16.6446 6.58095 16.5756 6.5821L14.8613 6.62113C14.4961 6.62113 14.2257 7.05318 14.2285 7.6051L14.2843 16.525C14.2705 16.8201 14.3703 17.1094 14.563 17.3333C14.6112 17.3831 14.6688 17.4228 14.7324 17.4501C14.7961 17.4774 14.8645 17.4917 14.9338 17.4922ZM15.0843 7.45736L16.478 7.42113C16.5503 7.54099 16.5843 7.68004 16.5756 7.81973L16.623 16.2267C16.6333 16.3701 16.5992 16.5131 16.5254 16.6365L15.1317 16.6727C15.0596 16.5538 15.0256 16.4157 15.0341 16.2769L14.9867 7.86991C14.972 7.72092 15.0063 7.5712 15.0843 7.44343V7.45736Z" fill="#BD1E2D"/>
<path d="M10.9257 17.5377L12.5981 17.507C12.6883 17.4986 12.7758 17.4725 12.8557 17.43C12.9356 17.3875 13.0063 17.3296 13.0636 17.2595C13.1209 17.1895 13.1637 17.1088 13.1896 17.0221C13.2154 16.9353 13.2238 16.8444 13.2142 16.7544L13.1584 9.92232C13.1611 9.8049 13.1375 9.68836 13.0893 9.58128C13.041 9.47419 12.9694 9.37927 12.8797 9.3035C12.7767 9.2242 12.65 9.18196 12.5201 9.18364L10.8476 9.2143C10.7576 9.22335 10.6703 9.2501 10.5907 9.29302C10.5111 9.33594 10.4408 9.39419 10.3838 9.4644C10.3268 9.53461 10.2843 9.6154 10.2586 9.70212C10.233 9.78885 10.2247 9.87979 10.2344 9.9697L10.2901 16.799C10.2874 16.9164 10.311 17.0329 10.3593 17.14C10.4075 17.2471 10.4791 17.342 10.5689 17.4178C10.6703 17.4979 10.7964 17.5403 10.9257 17.5377ZM11.1292 10.0282L12.403 10.0004C12.4651 10.0796 12.4968 10.1785 12.4922 10.2791L12.5368 16.4617C12.5443 16.5699 12.5115 16.6771 12.4448 16.7627L11.171 16.7906C11.1101 16.7107 11.0786 16.6123 11.0818 16.5119L11.04 10.3321C11.0329 10.2754 11.0372 10.2179 11.0525 10.1629C11.0678 10.1078 11.0938 10.0564 11.1292 10.0115V10.0282Z" fill="#BD1E2D"/>
<path d="M7.05395 17.6622L8.56754 17.6371C8.64443 17.635 8.72011 17.6174 8.79009 17.5855C8.86008 17.5536 8.92293 17.5079 8.97493 17.4513C9.02692 17.3946 9.06701 17.328 9.09279 17.2556C9.11858 17.1831 9.12954 17.1062 9.12503 17.0294L9.07485 11.5353C9.07621 11.4381 9.05412 11.342 9.01045 11.2552C8.96678 11.1683 8.90282 11.0933 8.82398 11.0364C8.72778 10.9716 8.61378 10.9385 8.49786 10.9416L6.98426 10.9667C6.9075 10.9684 6.83188 10.9856 6.76191 11.0172C6.69195 11.0489 6.62907 11.0942 6.57703 11.1507C6.525 11.2072 6.48487 11.2735 6.45905 11.3458C6.43324 11.4182 6.42226 11.4949 6.42677 11.5716L6.47695 17.0684C6.47628 17.1655 6.49868 17.2614 6.54229 17.3481C6.5859 17.4349 6.64949 17.51 6.72782 17.5674C6.82403 17.6321 6.93803 17.6653 7.05395 17.6622ZM7.17939 11.644L8.3334 11.6217C8.36198 11.6522 8.38392 11.6882 8.39784 11.7275C8.41175 11.7669 8.41733 11.8087 8.41423 11.8503L8.45326 16.6726C8.45647 16.7151 8.45095 16.7578 8.43705 16.798C8.42315 16.8383 8.40115 16.8753 8.37242 16.9068L7.21841 16.9291C7.18983 16.8986 7.16788 16.8626 7.15397 16.8233C7.14005 16.7839 7.13447 16.7421 7.13758 16.7005L7.09855 11.8782C7.09464 11.8357 7.09984 11.7928 7.11377 11.7524C7.12771 11.712 7.15007 11.6751 7.17939 11.644Z" fill="#BD1E2D"/>
</g>
<defs>
<clipPath id="clip0_11614_40691">
<rect width="24" height="24" fill="white"/>
</clipPath>
</defs>
</svg>
