<svg width="40" height="40" viewBox="0 0 40 40" fill="none" xmlns="http://www.w3.org/2000/svg">
<rect width="40" height="40" rx="20" fill="#DEE4FE"/>
<path d="M33.75 10H27.5V8.75C27.4959 7.7567 27.0995 6.80527 26.3971 6.10289C25.6947 5.40052 24.7433 5.00411 23.75 5H16.25C15.2567 5.00411 14.3053 5.40052 13.6029 6.10289C12.9005 6.80527 12.5041 7.7567 12.5 8.75V10H6.25C5.58696 10 4.95107 10.2634 4.48223 10.7322C4.01339 11.2011 3.75 11.837 3.75 12.5V32.5C3.75 33.163 4.01339 33.7989 4.48223 34.2678C4.95107 34.7366 5.58696 35 6.25 35H33.75C34.413 35 35.0489 34.7366 35.5178 34.2678C35.9866 33.7989 36.25 33.163 36.25 32.5V12.5C36.25 11.837 35.9866 11.2011 35.5178 10.7322C35.0489 10.2634 34.413 10 33.75 10ZM15 8.75C15 8.41848 15.1317 8.10054 15.3661 7.86612C15.6005 7.6317 15.9185 7.5 16.25 7.5H23.75C24.0815 7.5 24.3995 7.6317 24.6339 7.86612C24.8683 8.10054 25 8.41848 25 8.75V10H15V8.75ZM33.75 12.5V19C29.532 21.2996 24.8041 22.503 20 22.5C15.1959 22.503 10.468 21.2996 6.25 19V12.5H33.75ZM16.875 18.75C16.875 18.4185 17.0067 18.1005 17.2411 17.8661C17.4755 17.6317 17.7935 17.5 18.125 17.5H21.875C22.2065 17.5 22.5245 17.6317 22.7589 17.8661C22.9933 18.1005 23.125 18.4185 23.125 18.75C23.125 19.0815 22.9933 19.3995 22.7589 19.6339C22.5245 19.8683 22.2065 20 21.875 20H18.125C17.7935 20 17.4755 19.8683 17.2411 19.6339C17.0067 19.3995 16.875 19.0815 16.875 18.75Z" fill="#171717"/>
</svg>
