<svg width="205" height="32" viewBox="0 0 205 32" fill="none" xmlns="http://www.w3.org/2000/svg">
<g clip-path="url(#clip0_2038_29465)">
<path d="M19.5438 24.535H14.6654V21.0784H4.87968V24.535H0V16.8682H1.78412C2.95514 14.9725 3.4579 11.7378 3.59707 8.28115L3.65223 6.85938H17.1742V16.8682H19.5438V24.535ZM11.877 16.8682V11.0683H8.30874C8.30874 11.2075 8.25232 11.7654 8.25232 11.877C8.05799 13.9958 7.61164 15.7248 6.96971 16.867H11.877V16.8682Z" fill="#540575"/>
<path d="M20.8264 13.9683C20.8264 8.97832 24.3119 6.49585 29.7758 6.49585C35.2397 6.49585 38.7252 8.89306 38.7252 13.9683C38.7252 19.0436 35.4905 21.4408 29.7758 21.4408C24.0611 21.4408 20.8264 19.2103 20.8264 13.9683ZM33.2325 13.9683C33.2325 11.4871 32.089 10.4828 29.7758 10.4828C27.4626 10.4828 26.3179 11.5147 26.3179 13.9683C26.3179 16.422 27.6845 17.4538 29.7758 17.4538C32.0614 17.4538 33.2325 16.3944 33.2325 13.9683Z" fill="#540575"/>
<path d="M44.3572 9.8973C45.2498 8.58711 47.2571 7.3045 50.7138 7.3045C55.8994 7.3045 58.5473 9.86972 58.5473 14.2742C58.5473 19.3758 54.6168 21.4395 49.6819 21.4395C45.4442 21.4395 40.4805 20.0177 40.4805 12.2945C40.4805 3.23351 44.7747 1.39297 51.0473 0.891464C54.3936 0.613127 55.5646 0.417539 56.8472 -0.0012207V4.32053C55.927 4.71045 54.3384 5.04521 51.94 5.2408C47.5906 5.60314 44.4399 6.18865 44.3007 9.89605H44.3572V9.8973ZM49.6819 17.4525C52.108 17.4525 53.0558 16.0308 53.0558 14.3306C53.0558 12.6305 52.1356 11.3191 49.6268 11.3191C47.118 11.3191 46.1413 12.7133 46.1413 14.3306C46.1413 15.948 47.0615 17.4525 49.6819 17.4525Z" fill="#540575"/>
<path d="M66.1025 26.9323H60.8053V6.8582H65.9633V8.89307H66.0185C67.0503 7.52646 68.6953 6.57861 71.4548 6.57861C75.8606 6.57861 78.4245 8.6699 78.4245 13.8555C78.4245 18.2048 76.1389 21.3556 71.1752 21.3556C68.694 21.3556 66.9651 20.3237 66.1564 19.3759H66.1012V26.9323H66.1025ZM72.8766 13.8292C72.8766 11.5711 71.7332 10.5957 69.4751 10.5957C67.2171 10.5957 66.1012 11.8783 66.1012 14.1088C66.1012 16.1712 67.3563 17.3422 69.5579 17.3422C71.7595 17.3422 72.8754 16.2552 72.8754 13.8292H72.8766Z" fill="#540575"/>
<path d="M80.0419 13.9683C80.0419 8.97832 83.5273 6.49585 88.9913 6.49585C94.4552 6.49585 97.9407 8.89306 97.9407 13.9683C97.9407 19.0436 94.706 21.4408 88.9913 21.4408C83.2766 21.4408 80.0419 19.2103 80.0419 13.9683ZM92.4479 13.9683C92.4479 11.4871 91.3045 10.4828 88.9913 10.4828C86.6781 10.4828 85.5334 11.5147 85.5334 13.9683C85.5334 16.422 86.9 17.4538 88.9913 17.4538C91.2769 17.4538 92.4479 16.3944 92.4479 13.9683Z" fill="#540575"/>
<path d="M105.405 16.8683C103.37 16.8683 102.031 15.7249 102.031 13.9683C102.031 12.2118 103.229 11.0684 105.405 11.0684C107.58 11.0684 108.89 12.2394 108.89 13.9683C108.89 15.6973 107.635 16.8683 105.405 16.8683Z" fill="#FF6614"/>
<path d="M131.576 24.5351H126.697V21.0784H113.593V6.85815H118.89V16.867H123.854V6.85815H129.15V16.867H131.576V24.5338V24.5351Z" fill="#540575"/>
<path d="M148.637 20.1857C147.801 20.7713 145.208 21.4408 142.253 21.4408C135.534 21.4408 132.912 18.8204 132.912 13.8015C132.912 9.14504 136.063 6.49707 141.556 6.49707C147.689 6.49707 149.67 9.7318 149.67 13.8015V15.0841H138.379C138.796 16.8118 140.135 17.5378 142.979 17.5378C145.405 17.5378 147.524 17.0914 148.638 16.5059V20.1857H148.637ZM144.372 12.4901C144.427 11.0959 143.591 10.1756 141.583 10.1756C139.576 10.1756 138.656 10.9279 138.349 12.4901H144.372Z" fill="#540575"/>
<path d="M168.097 21.0784H162.8V16.0884H157.168V21.0784H151.871V6.85815H157.168V11.877H162.8V6.85815H168.097V21.0772V21.0784Z" fill="#540575"/>
<path d="M180.335 21.0784H175.065V11.2651H169.88V6.85938H185.52V11.2651H180.334V21.0784H180.335Z" fill="#540575"/>
<path d="M192.603 26.9323H187.306V6.8582H192.464V8.89307H192.519C193.55 7.52646 195.195 6.57861 197.955 6.57861C202.36 6.57861 204.925 8.6699 204.925 13.8555C204.925 18.2048 202.64 21.3556 197.677 21.3556C195.195 21.3556 193.467 20.3237 192.658 19.3759H192.603V26.9323ZM199.377 13.8292C199.377 11.5711 198.234 10.5957 195.976 10.5957C193.718 10.5957 192.603 11.8783 192.603 14.1088C192.603 16.1712 193.857 17.3422 196.06 17.3422C198.263 17.3422 199.378 16.2552 199.378 13.8292H199.377Z" fill="#540575"/>
<path d="M46.6603 24.5991C45.4241 23.2914 43.8193 23.319 42.2496 24.7897C42.2496 24.7897 42.2496 24.7884 42.2496 24.7871L39.8235 27.2132L37.3975 24.7871C37.3975 24.7871 37.3975 24.7884 37.3975 24.7897C35.8278 23.319 34.2229 23.2914 32.9867 24.5991C31.8358 25.8177 31.9599 27.4677 33.2663 28.8293C33.2663 28.8306 33.838 29.4073 34.0286 29.5991C35.6272 31.2027 37.7272 32.0001 39.8248 32.0001C41.9223 32.0001 44.0224 31.2014 45.621 29.5991C45.8128 29.4073 46.3845 28.8306 46.3833 28.8293C47.6884 27.4677 47.8138 25.8177 46.6628 24.5991H46.6603Z" fill="#FF6614"/>
</g>
<defs>
<clipPath id="clip0_2038_29465">
<rect width="205" height="32" fill="white"/>
</clipPath>
</defs>
</svg>
