<svg width="24" height="24" viewBox="0 0 24 24" fill="none" xmlns="http://www.w3.org/2000/svg">
<path d="M4.25781 16.5889C3.13998 14.703 2.74898 12.4738 3.15821 10.32C3.56743 8.16622 4.74875 6.23585 6.48039 4.8913C8.21202 3.54676 10.3749 2.88051 12.5629 3.01763C14.751 3.15476 16.8137 4.08583 18.364 5.63605C19.9142 7.18626 20.8452 9.24902 20.9824 11.4371C21.1195 13.6251 20.4532 15.788 19.1087 17.5196C17.7642 19.2512 15.8338 20.4326 13.68 20.8418C11.5262 21.251 9.29704 20.86 7.41109 19.7422L4.29535 20.6244C4.1677 20.6617 4.03235 20.664 3.9035 20.631C3.77464 20.5981 3.65703 20.5311 3.56298 20.437C3.46894 20.343 3.40192 20.2254 3.36896 20.0965C3.336 19.9677 3.33831 19.8323 3.37564 19.7047L4.25781 16.5889Z" stroke="#540575" stroke-width="2" stroke-linecap="round" stroke-linejoin="round"/>
<path d="M12 13.5C12.6904 13.5 13.25 12.9404 13.25 12.25C13.25 11.5596 12.6904 11 12 11C11.3096 11 10.75 11.5596 10.75 12.25C10.75 12.9404 11.3096 13.5 12 13.5Z" fill="#540575"/>
<path d="M8 13.5C8.69036 13.5 9.25 12.9404 9.25 12.25C9.25 11.5596 8.69036 11 8 11C7.30964 11 6.75 11.5596 6.75 12.25C6.75 12.9404 7.30964 13.5 8 13.5Z" fill="#540575"/>
<path d="M16 13.5C16.6904 13.5 17.25 12.9404 17.25 12.25C17.25 11.5596 16.6904 11 16 11C15.3096 11 14.75 11.5596 14.75 12.25C14.75 12.9404 15.3096 13.5 16 13.5Z" fill="#540575"/>
</svg>
