<svg width="40" height="40" viewBox="0 0 40 40" fill="none" xmlns="http://www.w3.org/2000/svg">
<rect width="40" height="40" rx="20" fill="#DEE4FE"/>
<path d="M36.875 18.75H34.9531C34.6525 15.2164 33.1123 11.903 30.6047 9.39534C28.097 6.88771 24.7836 5.34746 21.25 5.04688V3.125C21.25 2.79348 21.1183 2.47554 20.8839 2.24112C20.6495 2.0067 20.3315 1.875 20 1.875C19.6685 1.875 19.3505 2.0067 19.1161 2.24112C18.8817 2.47554 18.75 2.79348 18.75 3.125V5.04688C15.2164 5.34746 11.903 6.88771 9.39534 9.39534C6.88771 11.903 5.34746 15.2164 5.04688 18.75H3.125C2.79348 18.75 2.47554 18.8817 2.24112 19.1161C2.0067 19.3505 1.875 19.6685 1.875 20C1.875 20.3315 2.0067 20.6495 2.24112 20.8839C2.47554 21.1183 2.79348 21.25 3.125 21.25H5.04688C5.34746 24.7836 6.88771 28.097 9.39534 30.6047C11.903 33.1123 15.2164 34.6525 18.75 34.9531V36.875C18.75 37.2065 18.8817 37.5245 19.1161 37.7589C19.3505 37.9933 19.6685 38.125 20 38.125C20.3315 38.125 20.6495 37.9933 20.8839 37.7589C21.1183 37.5245 21.25 37.2065 21.25 36.875V34.9531C24.7836 34.6525 28.097 33.1123 30.6047 30.6047C33.1123 28.097 34.6525 24.7836 34.9531 21.25H36.875C37.2065 21.25 37.5245 21.1183 37.7589 20.8839C37.9933 20.6495 38.125 20.3315 38.125 20C38.125 19.6685 37.9933 19.3505 37.7589 19.1161C37.5245 18.8817 37.2065 18.75 36.875 18.75ZM30.625 21.25H32.4375C32.1407 24.1158 30.8666 26.7921 28.8294 28.8294C26.7921 30.8666 24.1158 32.1407 21.25 32.4375V30.625C21.25 30.2935 21.1183 29.9755 20.8839 29.7411C20.6495 29.5067 20.3315 29.375 20 29.375C19.6685 29.375 19.3505 29.5067 19.1161 29.7411C18.8817 29.9755 18.75 30.2935 18.75 30.625V32.4375C15.8842 32.1407 13.2079 30.8666 11.1706 28.8294C9.13338 26.7921 7.85932 24.1158 7.5625 21.25H9.375C9.70652 21.25 10.0245 21.1183 10.2589 20.8839C10.4933 20.6495 10.625 20.3315 10.625 20C10.625 19.6685 10.4933 19.3505 10.2589 19.1161C10.0245 18.8817 9.70652 18.75 9.375 18.75H7.5625C7.85932 15.8842 9.13338 13.2079 11.1706 11.1706C13.2079 9.13338 15.8842 7.85932 18.75 7.5625V9.375C18.75 9.70652 18.8817 10.0245 19.1161 10.2589C19.3505 10.4933 19.6685 10.625 20 10.625C20.3315 10.625 20.6495 10.4933 20.8839 10.2589C21.1183 10.0245 21.25 9.70652 21.25 9.375V7.5625C24.1158 7.85932 26.7921 9.13338 28.8294 11.1706C30.8666 13.2079 32.1407 15.8842 32.4375 18.75H30.625C30.2935 18.75 29.9755 18.8817 29.7411 19.1161C29.5067 19.3505 29.375 19.6685 29.375 20C29.375 20.3315 29.5067 20.6495 29.7411 20.8839C29.9755 21.1183 30.2935 21.25 30.625 21.25Z" fill="#171717"/>
<path d="M20 26.25C23.4518 26.25 26.25 23.4518 26.25 20C26.25 16.5482 23.4518 13.75 20 13.75C16.5482 13.75 13.75 16.5482 13.75 20C13.75 23.4518 16.5482 26.25 20 26.25Z" fill="#171717"/>
</svg>
