<svg width="24" height="24" viewBox="0 0 24 24" fill="none" xmlns="http://www.w3.org/2000/svg">
<path fill-rule="evenodd" clip-rule="evenodd" d="M2.34992 5.07136C3.34395 3.87401 4.88441 3 7.05179 3C8.89865 3 10.4914 4.11828 11.9937 5.58109L12.0488 5.52602C13.5469 4.08581 15.1396 3 16.9497 3C19.1171 3 20.6576 3.87401 21.6516 5.07136C22.5594 6.18124 23.0624 7.5671 23.0777 9.00088C23.0777 11.9477 21.0374 14.7095 18.774 16.8853C16.5106 19.0612 13.9352 20.7301 12.766 21.4672C12.4862 21.6283 12.1667 21.7076 11.844 21.6959C11.5291 21.7014 11.2179 21.626 10.9404 21.4771L10.9206 21.4672L10.898 21.4545C10.7142 21.3526 10.5554 21.2111 10.4333 21.0401C10.3112 20.8691 10.2287 20.673 10.192 20.4661C10.1871 20.4329 10.1843 20.3994 10.1835 20.3658C9.93853 20.4733 9.6698 20.5152 9.40369 20.4875C9.13759 20.4598 8.88327 20.3634 8.66567 20.2077L8.62755 20.1823C8.41254 20.0253 8.24252 19.8146 8.13449 19.5713C8.02645 19.3279 7.98419 19.0605 8.01193 18.7957C7.76719 18.871 7.50764 18.8846 7.25637 18.8354C7.00509 18.7861 6.7699 18.6755 6.57172 18.5133L6.52089 18.4752L6.50536 18.4625C6.30825 18.2919 6.15845 18.0734 6.0704 17.8281C5.98235 17.5827 5.95903 17.3188 6.00269 17.0618C5.74755 17.1206 5.48157 17.1124 5.23049 17.0382C4.97942 16.964 4.75175 16.8262 4.56954 16.6382L4.36904 16.4293C4.11467 16.1624 3.97001 15.8095 3.9638 15.4409C1.72018 12.9742 0.923828 11.1273 0.923828 9.00088C0.939138 7.5671 1.44209 6.18124 2.34992 5.07136ZM4.10218 14.7504C4.17874 14.5885 4.28129 14.4401 4.40575 14.3113L6.10012 12.5887L9.40272 9.28469C9.42895 9.25843 9.46009 9.2376 9.49438 9.22339C9.52866 9.20918 9.56541 9.20187 9.60252 9.20187C9.63963 9.20187 9.67638 9.20918 9.71066 9.22339C9.74494 9.2376 9.77608 9.25843 9.80231 9.28469L13.1063 12.5887C13.4434 12.9257 13.9005 13.1151 14.3771 13.1151C14.8537 13.1151 15.3108 12.9257 15.6479 12.5887C15.9849 12.2517 16.1743 11.7946 16.1743 11.3179C16.1743 10.8413 15.9849 10.3842 15.6479 10.0472L12.3439 6.72902L11.7932 6.17835C10.2471 4.63224 8.73768 3.56479 7.05179 3.56479C5.05385 3.56479 3.67153 4.36397 2.78481 5.43283C1.96085 6.4409 1.50381 7.699 1.48862 9.00088C1.48862 10.8562 2.1353 12.5096 4.10218 14.7504ZM12.8564 6.43956C12.8539 6.43559 12.8505 6.43222 12.8465 6.42968L12.3975 5.97926L12.4498 5.92702C13.9168 4.51222 15.3711 3.56479 16.9497 3.56479C18.9477 3.56479 20.33 4.36397 21.2167 5.43283C22.0407 6.4409 22.4977 7.699 22.5129 9.00088C22.5129 11.702 20.6279 14.3198 18.3829 16.4843C16.1378 18.6489 13.6259 20.2628 12.4639 20.9956C12.275 21.097 12.0624 21.1457 11.8483 21.1368C11.6317 21.1429 11.417 21.0944 11.2242 20.9956L11.203 20.9843L11.1875 20.9772C11.0786 20.9175 10.9843 20.8345 10.9111 20.7342C10.8379 20.6339 10.7876 20.5188 10.7639 20.3969C10.7564 20.271 10.778 20.145 10.8269 20.0287C10.8759 19.9124 10.9509 19.8089 11.0463 19.7262L12.9242 17.8059C12.9768 17.7526 13.0061 17.6805 13.0055 17.6056C13.005 17.5306 12.9747 17.459 12.9214 17.4064C12.868 17.3537 12.7959 17.3245 12.721 17.325C12.646 17.3255 12.5744 17.3558 12.5218 17.4092L10.2852 19.6288C10.1182 19.7966 9.89732 19.9001 9.66149 19.921C9.42566 19.9419 9.19002 19.879 8.99607 19.7432H8.9876L8.94948 19.7178C8.83864 19.6323 8.74721 19.5243 8.68124 19.4009C8.61526 19.2775 8.57624 19.1415 8.56676 19.0019C8.55729 18.8622 8.57757 18.7222 8.62626 18.591C8.67496 18.4598 8.75096 18.3405 8.84923 18.2408L10.7229 16.3022C10.7711 16.2479 10.7964 16.1771 10.7938 16.1046C10.7912 16.0321 10.7608 15.9634 10.7088 15.9127C10.6569 15.862 10.5874 15.8333 10.5148 15.8325C10.4423 15.8316 10.3722 15.8588 10.3191 15.9083L8.25903 17.9951C8.08391 18.1714 7.84932 18.2758 7.60119 18.2881C7.35307 18.3004 7.1093 18.2196 6.91765 18.0615L6.91059 18.0516L6.86259 18.0163C6.76512 17.9273 6.6867 17.8195 6.63205 17.6994C6.5774 17.5792 6.54767 17.4492 6.54463 17.3173C6.5416 17.1853 6.56533 17.0541 6.61439 16.9316C6.66346 16.8091 6.73684 16.6977 6.83011 16.6044L8.59508 14.797C8.64769 14.7437 8.67695 14.6716 8.67642 14.5967C8.67589 14.5217 8.64561 14.4501 8.59225 14.3974C8.53889 14.3448 8.46681 14.3156 8.39187 14.3161C8.31694 14.3166 8.24528 14.3469 8.19266 14.4003L6.3571 16.2358C6.26618 16.3281 6.15782 16.4014 6.03832 16.4515C5.91881 16.5015 5.79055 16.5272 5.661 16.5272C5.53144 16.5272 5.40318 16.5015 5.28368 16.4515C5.16417 16.4014 5.05581 16.3281 4.96489 16.2358L4.77145 16.041C4.60422 15.8576 4.51497 15.6164 4.52262 15.3683C4.53026 15.1203 4.6342 14.885 4.8124 14.7123L6.50677 12.9925L9.61311 9.88619L12.7194 12.9925C12.9366 13.22 13.197 13.4018 13.4855 13.5272C13.7739 13.6526 14.0845 13.7191 14.399 13.7227C14.7134 13.7263 15.0255 13.667 15.3167 13.5483C15.6079 13.4296 15.8725 13.2539 16.0949 13.0314C16.3172 12.809 16.4928 12.5444 16.6114 12.2531C16.73 11.9618 16.7891 11.6497 16.7854 11.3352C16.7816 11.0208 16.715 10.7102 16.5895 10.4218C16.464 10.1335 16.2821 9.8731 16.0545 9.65604L12.8564 6.43956Z" fill="#FF8562" stroke="#FF8562" stroke-width="0.5"/>
</svg>
