<svg width="42" height="40" viewBox="0 0 42 40" fill="none" xmlns="http://www.w3.org/2000/svg">
<path fill-rule="evenodd" clip-rule="evenodd" d="M10.3584 8.95522C15.6397 8.95522 19.8647 12.6751 19.9106 18.5075C19.9566 23.7887 15.6397 28.0597 10.3584 28.0597C5.0771 28.0597 0.806152 23.7887 0.806152 18.5075C0.852077 13.2262 5.12303 8.95522 10.3584 8.95522ZM10.3584 14.2824C8.01625 14.2824 6.13336 16.1653 6.13336 18.5075C6.13336 20.8496 8.01625 22.7325 10.3584 22.7325C12.7005 22.7325 14.5834 20.8496 14.5834 18.5075C14.5834 16.1653 12.7005 14.2824 10.3584 14.2824Z" fill="#2B1263"/>
<path fill-rule="evenodd" clip-rule="evenodd" d="M32.9072 10.0574C37.9129 10.0574 42.0002 14.0987 42.0002 19.0586C42.0002 24.0184 37.9129 28.0597 32.9072 28.0597C25.0082 28.0597 22.712 23.2836 22.2987 16.5786C22.115 13.5476 23.0335 10.287 23.7682 8.40413C25.9726 2.89323 32.4479 1.60735 40.3928 0V5.23536L33.2746 6.93456C33.2746 6.93456 29.1873 8.03674 28.7281 11.0677C29.968 10.4248 31.3917 10.0574 32.9072 10.0574ZM32.3561 14.7417C30.1517 14.7417 28.3607 16.5327 28.3607 18.7371C28.3607 20.9414 30.1517 22.7325 32.3561 22.7325C34.5604 22.7325 36.3515 20.9414 36.3515 18.7371C36.3515 16.5327 34.5604 14.7417 32.3561 14.7417Z" fill="#2B1263"/>
<path fill-rule="evenodd" clip-rule="evenodd" d="M3.46973 31.2285V35.3617C3.46973 35.3617 11.1391 40 20.7372 40C30.3354 40 38.6477 35.4535 38.6477 35.4535L38.6018 30.8152C38.5558 30.8611 21.8394 40.8726 3.46973 31.2285Z" fill="#2B1263"/>
</svg>
