
<svg width="32" height="32" viewBox="0 0 32 32" fill="none" xmlns="http://www.w3.org/2000/svg">
    <g clip-path="url(#clip0_167_19886)">
        <path d="M0 13.8126C0 9.59211 2.94715 7.49304 7.56891 7.49304C12.2844 7.49304 15.137 9.52082 15.137 13.8126C15.137 18.0331 12.4021 20.1314 7.56891 20.1314C2.78218 20.1314 0 18.2454 0 13.8126ZM10.492 13.8126C10.492 11.7144 9.52539 10.8655 7.56891 10.8655C5.6829 10.8655 4.64497 11.7376 4.64497 13.8126C4.64497 15.8164 5.80062 16.7598 7.56891 16.7598C9.50135 16.7598 10.492 15.8644 10.492 13.8126Z" fill="#540575"/>
        <path d="M19.8998 10.3706C20.6542 9.26218 22.352 8.17782 25.276 8.17782C29.6615 8.17782 31.9015 10.3465 31.9015 14.0721C31.9015 18.3872 28.5771 20.1314 24.4038 20.1314C20.82 20.1314 16.6235 18.9293 16.6235 12.3975C16.6235 4.73492 20.2546 3.17886 25.5595 2.7544C28.3889 2.51896 29.3788 2.35399 30.464 2V5.65513C29.6855 5.98508 28.3417 6.2686 26.3139 6.43358C22.6356 6.73948 19.9711 7.23523 19.8534 10.3714H19.8998V10.3706ZM24.403 16.7598C26.454 16.7598 27.2557 15.5577 27.2557 14.1194C27.2557 12.681 26.4772 11.5735 24.3558 11.5735C22.1862 11.5735 21.4086 12.7523 21.4086 14.1194C21.4086 15.5345 22.1862 16.7598 24.403 16.7598Z" fill="#540575"/>
        <path d="M21.7391 23.1291C20.6879 22.0174 19.3234 22.0414 17.9895 23.2907C17.9895 23.2899 17.9887 23.2891 17.9887 23.2882L15.9261 25.3508L13.8635 23.2882C13.8635 23.2891 13.8627 23.2899 13.8627 23.2907C12.5279 22.0406 11.1634 22.0165 10.113 23.1291C9.13395 24.1653 9.24007 25.568 10.3501 26.7262C10.3493 26.7278 10.8359 27.2178 10.9984 27.3803C12.3572 28.7432 14.1429 29.4221 15.9261 29.4221C17.7101 29.4221 19.495 28.7432 20.8537 27.3803C21.0162 27.2169 21.5029 26.727 21.502 26.7262C22.6121 25.568 22.7182 24.1653 21.7391 23.1291Z" fill="#FF6614"/>
    </g>
    <defs>
        <clipPath id="clip0_167_19886">
            <rect width="32" height="32" fill="white"/>
        </clipPath>
    </defs>
</svg>