<svg width="24" height="24" viewBox="0 0 24 24" fill="none" xmlns="http://www.w3.org/2000/svg">
<g clip-path="url(#clip0_12411_48247)">
<path d="M12 1.33395C14.1124 1.3334 16.1776 1.9593 17.9342 3.1325C19.6909 4.3057 21.0602 5.97349 21.869 7.92496C22.6778 9.87642 22.8897 12.0239 22.4779 14.0958C22.0661 16.1677 21.0492 18.071 19.5557 19.5649C18.0622 21.0588 16.1592 22.0762 14.0874 22.4885C12.0156 22.9008 9.86805 22.6895 7.91637 21.8812C5.96469 21.073 4.29654 19.7041 3.12288 17.9477C1.94923 16.1914 1.32279 14.1264 1.32279 12.014C1.32648 9.18306 2.45249 6.46912 4.45398 4.46711C6.45546 2.46511 9.1691 1.33838 12 1.33395ZM12 0C9.62721 1.6041e-06 7.30769 0.703438 5.33461 2.0214C3.36152 3.33936 1.82344 5.21268 0.914783 7.40458C0.00612259 9.59648 -0.232329 12.0086 0.229564 14.336C0.691456 16.6633 1.83296 18.8016 3.50979 20.4803C5.18663 22.1591 7.32352 23.3031 9.65037 23.7677C11.9772 24.2323 14.3896 23.9967 16.5825 23.0905C18.7755 22.1844 20.6506 20.6485 21.9708 18.677C23.2911 16.7054 23.9972 14.3867 24 12.014C24 8.83135 22.7357 5.77911 20.4853 3.52867C18.2348 1.27824 15.1826 0.0139535 12 0.0139535V0Z" fill="#850FE1"/>
<path fill-rule="evenodd" clip-rule="evenodd" d="M7.52003 7.25416C7.20223 7.17268 6.8678 7.18332 6.55582 7.28485C6.24384 7.38637 5.96719 7.57459 5.75821 7.8275C5.54922 8.08041 5.41653 8.38757 5.37563 8.7131C5.33473 9.03862 5.38732 9.36906 5.52724 9.66581C5.66717 9.96256 5.88866 10.2134 6.16583 10.3889C6.44299 10.5645 6.7644 10.6575 7.09248 10.6572C7.42385 10.6568 7.69275 10.9252 7.69309 11.2566C7.69335 11.5119 7.5341 11.7301 7.30941 11.817C7.24195 11.8431 7.16859 11.8574 7.0919 11.8572C6.50738 11.8563 5.93071 11.9919 5.40789 12.2533C4.88507 12.5147 4.43057 12.8947 4.08064 13.3629C3.88226 13.6283 3.50627 13.6826 3.24084 13.4843C2.97541 13.2859 2.92106 12.9099 3.11943 12.6445C3.5813 12.0265 4.18118 11.525 4.87123 11.18C4.94578 11.1427 5.02115 11.1074 5.09728 11.074C4.82484 10.8208 4.60187 10.517 4.44186 10.1776C4.20479 9.67485 4.1157 9.11501 4.18499 8.56351C4.25428 8.012 4.47909 7.4916 4.83316 7.06312C5.18722 6.63463 5.65592 6.31575 6.18448 6.14375C6.71304 5.97174 7.27963 5.95371 7.81806 6.09176C8.35649 6.2298 8.84451 6.51823 9.2251 6.92333C9.6057 7.32844 9.86315 7.83349 9.96737 8.37947C10.0295 8.70496 9.816 9.0192 9.49051 9.08133C9.16502 9.14346 8.85078 8.92997 8.78865 8.60447C8.72714 8.28221 8.57518 7.9841 8.35053 7.74499C8.12589 7.50588 7.83784 7.33564 7.52003 7.25416ZM9.73129 13.0036C9.73129 11.7275 10.7658 10.6929 12.042 10.6929C13.3182 10.6929 14.3527 11.7275 14.3527 13.0036C14.3527 14.2798 13.3182 15.3144 12.042 15.3144C10.7658 15.3144 9.73129 14.2798 9.73129 13.0036ZM12.042 9.49292C10.1031 9.49292 8.53129 11.0647 8.53129 13.0036C8.53129 14.131 9.06263 15.1342 9.88853 15.7765C9.66991 15.8745 9.45744 15.9876 9.25276 16.1155C8.4164 16.6378 7.74355 17.3846 7.31088 18.2707C7.16548 18.5685 7.289 18.9277 7.58677 19.0731C7.88454 19.2185 8.2438 19.095 8.38919 18.7972C8.72324 18.1131 9.24271 17.5366 9.88844 17.1333C10.5342 16.73 11.2802 16.5162 12.0415 16.5162C12.8028 16.5162 13.5488 16.73 14.1945 17.1333C14.8403 17.5366 15.3597 18.1131 15.6938 18.7972C15.8392 19.095 16.1984 19.2185 16.4962 19.0731C16.794 18.9277 16.9175 18.5685 16.7721 18.2707C16.3394 17.3846 15.6666 16.6378 14.8302 16.1155C14.6257 15.9878 14.4135 15.8747 14.1951 15.7768C15.0212 15.1345 15.5527 14.1311 15.5527 13.0036C15.5527 11.0647 13.9809 9.49292 12.042 9.49292ZM16.9917 11.8572C17.5762 11.8563 18.1529 11.9919 18.6757 12.2533C19.1985 12.5147 19.653 12.8947 20.0029 13.3629C20.2013 13.6283 20.5773 13.6826 20.8427 13.4843C21.1082 13.2859 21.1625 12.9099 20.9641 12.6445C20.5023 12.0265 19.9024 11.525 19.2123 11.18C19.1378 11.1427 19.0624 11.1074 18.9862 11.074C19.2587 10.8208 19.4816 10.5169 19.6417 10.1776C19.8787 9.67485 19.9678 9.11501 19.8985 8.56351C19.8292 8.012 19.6044 7.4916 19.2504 7.06312C18.8963 6.63463 18.4276 6.31575 17.899 6.14375C17.3705 5.97174 16.8039 5.95371 16.2655 6.09176C15.727 6.2298 15.239 6.51823 14.8584 6.92333C14.4778 7.32844 14.2204 7.83349 14.1161 8.37947C14.054 8.70496 14.2675 9.0192 14.593 9.08133C14.9185 9.14346 15.2327 8.92997 15.2949 8.60447C15.3564 8.28221 15.5083 7.9841 15.733 7.74499C15.9576 7.50588 16.2457 7.33564 16.5635 7.25416C16.8813 7.17268 17.2157 7.18332 17.5277 7.28485C17.8397 7.38637 18.1163 7.57459 18.3253 7.8275C18.5343 8.08041 18.667 8.38757 18.7079 8.7131C18.7488 9.03862 18.6962 9.36906 18.5563 9.66581C18.4163 9.96256 18.1949 10.2134 17.9177 10.3889C17.6405 10.5645 17.3191 10.6575 16.991 10.6572C16.6597 10.6568 16.3908 10.9252 16.3904 11.2566C16.3901 11.5274 16.5694 11.7565 16.8158 11.8314C16.8715 11.8483 16.9305 11.8573 16.9917 11.8572Z" fill="#850FE1"/>
</g>
<defs>
<clipPath id="clip0_12411_48247">
<rect width="24" height="24" fill="white"/>
</clipPath>
</defs>
</svg>
