<svg width="16" height="16" viewBox="0 0 16 16" fill="none" xmlns="http://www.w3.org/2000/svg">
<mask id="mask0" mask-type="alpha" maskUnits="userSpaceOnUse" x="1" y="1" width="14" height="14">
<path fill-rule="evenodd" clip-rule="evenodd" d="M7.99992 1.33398C4.31992 1.33398 1.33325 4.32065 1.33325 8.00065C1.33325 11.6807 4.31992 14.6673 7.99992 14.6673C11.6799 14.6673 14.6666 11.6807 14.6666 8.00065C14.6666 4.32065 11.6799 1.33398 7.99992 1.33398ZM7.99992 8.66732C7.63325 8.66732 7.33325 8.36732 7.33325 8.00065V5.33398C7.33325 4.96732 7.63325 4.66732 7.99992 4.66732C8.36659 4.66732 8.66659 4.96732 8.66659 5.33398V8.00065C8.66659 8.36732 8.36659 8.66732 7.99992 8.66732ZM7.33325 10.0007V11.334H8.66659V10.0007H7.33325Z" fill="black"/>
</mask>
<g mask="url(#mask0)">
<rect width="16" height="16" fill="#540575"/>
</g>
</svg>
