<svg width="20" height="20" viewBox="0 0 20 20" fill="none" xmlns="http://www.w3.org/2000/svg">
<path fill-rule="evenodd" clip-rule="evenodd" d="M10.0003 3.3335C12.2732 3.3335 14.4467 4.52568 16.4722 6.48445C17.1632 7.1527 17.7883 7.86613 18.3387 8.57985C18.6708 9.01053 18.9065 9.34932 19.0356 9.55116L19.3228 10.0002L19.0356 10.4492C18.9065 10.651 18.6708 10.9898 18.3387 11.4205C17.7883 12.1342 17.1632 12.8476 16.4722 13.5159C14.4467 15.4746 12.2732 16.6668 10.0003 16.6668C7.72731 16.6668 5.55386 15.4746 3.52836 13.5159C2.83734 12.8476 2.21219 12.1342 1.66185 11.4205C1.32977 10.9898 1.09399 10.651 0.964901 10.4492L0.677734 10.0002L0.964901 9.55116C1.09399 9.34932 1.32977 9.01053 1.66185 8.57985C2.21219 7.86613 2.83734 7.1527 3.52836 6.48445C5.55386 4.52568 7.72731 3.3335 10.0003 3.3335ZM17.0188 9.59756C16.5149 8.94409 15.942 8.29033 15.3135 7.68254C13.569 5.99548 11.7545 5.00016 10.0002 5.00016C8.24601 5.00016 6.43149 5.99548 4.68694 7.68254C4.05844 8.29033 3.48557 8.94409 2.9817 9.59756C2.87288 9.73869 2.77232 9.87335 2.68038 10.0002C2.77232 10.127 2.87288 10.2616 2.9817 10.4028C3.48557 11.0562 4.05844 11.71 4.68694 12.3178C6.43149 14.0048 8.24601 15.0002 10.0002 15.0002C11.7545 15.0002 13.569 14.0048 15.3135 12.3178C15.942 11.71 16.5149 11.0562 17.0188 10.4028C17.1276 10.2616 17.2282 10.127 17.3201 10.0002C17.2282 9.87335 17.1276 9.73869 17.0188 9.59756ZM6.66693 10.0002C6.66693 11.8411 8.15932 13.3335 10.0003 13.3335C11.8412 13.3335 13.3336 11.8411 13.3336 10.0002C13.3336 8.15921 11.8412 6.66683 10.0003 6.66683C8.15932 6.66683 6.66693 8.15921 6.66693 10.0002ZM11.6669 10.0002C11.6669 10.9206 10.9207 11.6668 10.0003 11.6668C9.07979 11.6668 8.3336 10.9206 8.3336 10.0002C8.3336 9.07969 9.07979 8.3335 10.0003 8.3335C10.9207 8.3335 11.6669 9.07969 11.6669 10.0002Z" fill="#878787"/>
</svg>
