<svg width="37" height="40" viewBox="0 0 37 40" fill="none" xmlns="http://www.w3.org/2000/svg">
<path d="M36.5805 13.2688C36.4232 11.2074 34.8497 8.56454 33.2763 7.29599C31.507 5.9978 29.6685 4.79797 27.7693 3.70178C25.8844 2.57596 23.9411 1.55259 21.9475 0.636125C20.8827 0.198395 19.7408 -0.0173797 18.5909 0.00184772C17.4406 -0.0224706 16.2977 0.193486 15.2342 0.636125C13.2411 1.55322 11.2977 2.5765 9.41253 3.70178C6.37051 5.55179 3.9055 7.29599 3.9055 7.29599C2.59549 8.4009 1.60703 9.82691 1.0253 11.4222C0.921297 11.7076 1.13948 12 1.44321 12H3.95786C4.29568 12 4.60196 11.8104 4.77914 11.5228C5.22705 10.7959 5.7916 10.1396 6.45642 9.58273C6.45642 9.58273 8.49171 8.15245 11.0035 6.63553C12.56 5.71279 14.1646 4.87361 15.8103 4.12169C16.6883 3.75869 17.632 3.5816 18.5818 3.60151C19.5312 3.58578 20.4741 3.76269 21.3533 4.12169C22.9994 4.87306 24.6039 5.71225 26.1602 6.63553C27.7284 7.53435 29.2463 8.51818 30.7072 9.58273C32.0064 10.6229 33.3055 12.79 33.4354 14.4804C33.4354 14.4804 33.7386 16.9942 33.7819 19.9718C33.7792 21.8107 33.6781 23.6482 33.4788 25.4763C33.1766 27.3904 32.1921 29.1302 30.7072 30.3739C30.7072 30.3739 28.6719 31.8475 26.1602 33.3645C24.6036 34.2873 22.9991 35.1264 21.3533 35.8784C20.4752 36.2414 19.5316 36.4185 18.5818 36.3985C17.6332 36.4184 16.6905 36.2459 15.8103 35.8914C14.1643 35.1399 12.5597 34.3007 11.0035 33.3775C8.49171 31.9039 6.45642 30.3869 6.45642 30.3869C5.87697 29.923 5.2976 29.2349 4.81814 28.465C4.6425 28.1831 4.33968 28 4.0075 28H1.45385C1.14621 28 0.928206 28.299 1.04157 28.585C1.67048 30.1719 2.78804 31.766 3.9055 32.667C3.9055 32.667 6.37051 34.5169 9.41253 36.314C11.2974 37.4399 13.2407 38.4633 15.2342 39.3797C16.3002 39.812 17.442 40.0224 18.5909 39.9981C19.7412 40.0225 20.8842 39.8065 21.9475 39.3638C23.9407 38.4467 25.8841 37.4235 27.7693 36.2982C30.8112 34.4482 33.2763 32.6511 33.2763 32.6511C35.0746 31.1343 36.267 29.0127 36.633 26.6784C36.8744 24.449 36.9969 22.2082 37.0001 19.9656C36.9476 16.3344 36.5805 13.2688 36.5805 13.2688Z" fill="url(#paint0_linear_15707_43861)"/>
<path d="M0.182129 15.6021C0.182129 15.1603 0.540313 14.8021 0.982134 14.8021H13.3822C13.824 14.8021 14.1822 15.1603 14.1822 15.6021V18.0021C14.1822 18.444 13.824 18.8021 13.3822 18.8021H0.182129V15.6021Z" fill="#0066B3"/>
<path d="M0.182129 21.2014H25.3822C25.8241 21.2014 26.1822 21.5595 26.1822 22.0014V24.4014C26.1822 24.8432 25.8241 25.2014 25.3822 25.2014H0.982134C0.540313 25.2014 0.182129 24.8432 0.182129 24.4014V21.2014Z" fill="#EE2F53"/>
<defs>
<linearGradient id="paint0_linear_15707_43861" x1="18.9161" y1="2.95295e-05" x2="18.9161" y2="40" gradientUnits="userSpaceOnUse">
<stop stop-color="#0066B3"/>
<stop offset="0.354167" stop-color="#0066B3"/>
<stop offset="0.6875" stop-color="#EE2F53"/>
<stop offset="1" stop-color="#EE2F53"/>
</linearGradient>
</defs>
</svg>
