<svg width="32" height="32" viewBox="0 0 32 32" fill="none" xmlns="http://www.w3.org/2000/svg">
<path fill-rule="evenodd" clip-rule="evenodd" d="M21.3337 21.2201V24.0001C21.3337 26.9456 18.9458 29.3334 16.0003 29.3334C13.0548 29.3334 10.667 26.9456 10.667 24.0001V21.2201C10.667 20.9597 10.5748 20.6756 10.3569 20.3017C10.217 20.0614 10.0339 19.7974 9.75766 19.432L9.66475 19.3108C9.48031 19.0704 9.07745 18.5453 8.92873 18.3445C7.42225 16.3097 6.66699 14.4932 6.66699 12.0001C6.66699 6.84542 10.8457 2.66675 16.0003 2.66675C21.155 2.66675 25.3337 6.84542 25.3337 12.0001C25.3337 14.5478 24.5681 16.4332 23.0744 18.4641C22.9161 18.6793 22.5167 19.1985 22.2801 19.5059C22.1876 19.6261 22.12 19.7139 22.1015 19.7386C21.7997 20.1401 21.6122 20.4248 21.4903 20.672C21.3799 20.8957 21.3337 21.0685 21.3337 21.2201ZM18.7252 20.5858C18.7932 20.217 18.9197 19.8552 19.0988 19.4922C19.3092 19.0655 19.5769 18.6591 19.9699 18.1363C19.9968 18.1004 20.0838 17.9873 20.1961 17.8413C20.4362 17.5291 20.7923 17.0662 20.9262 16.8841C22.111 15.2731 22.667 13.9039 22.667 12.0001C22.667 8.31816 19.6822 5.33339 16.0003 5.33339C12.3184 5.33339 9.33364 8.31816 9.33364 12.0001C9.33364 13.8381 9.87585 15.1422 11.0719 16.7577C11.2003 16.9311 11.5629 17.4039 11.7588 17.6593L11.7588 17.6593C11.8253 17.746 11.8726 17.8077 11.8849 17.824C12.22 18.2672 12.457 18.6089 12.6612 18.9595C12.9793 19.5055 13.1904 20.0378 13.2819 20.5897C14.1128 21.0884 15.011 21.3334 16.0003 21.3334C16.9922 21.3334 17.8925 21.0872 18.7252 20.5858ZM18.667 24.0001V23.55C17.8237 23.8493 16.9328 24 16.0003 24C15.0679 24 14.1769 23.8493 13.3336 23.5499V24.0001C13.3336 25.4728 14.5275 26.6667 16.0003 26.6667C17.4731 26.6667 18.667 25.4728 18.667 24.0001Z" fill="#540575"/>
</svg>
