<svg width="40" height="40" viewBox="0 0 40 40" fill="none" xmlns="http://www.w3.org/2000/svg">
<rect width="40" height="40" rx="20" fill="#DEE4FE"/>
<path d="M27.5 36.2504C27.5 36.5819 27.3683 36.8999 27.1339 37.1343C26.8995 37.3687 26.5815 37.5004 26.25 37.5004H13.75C13.4185 37.5004 13.1006 37.3687 12.8661 37.1343C12.6317 36.8999 12.5 36.5819 12.5 36.2504C12.5 35.9189 12.6317 35.6009 12.8661 35.3665C13.1006 35.1321 13.4185 35.0004 13.75 35.0004H26.25C26.5815 35.0004 26.8995 35.1321 27.1339 35.3665C27.3683 35.6009 27.5 35.9189 27.5 36.2504ZM33.75 16.2504C33.7542 18.3331 33.2835 20.3894 32.3738 22.263C31.4641 24.1366 30.1393 25.7781 28.5 27.0629C28.1904 27.2966 27.9391 27.5987 27.7656 27.9457C27.5921 28.2926 27.5012 28.675 27.5 29.0629V30.0004C27.5 30.6634 27.2366 31.2993 26.7678 31.7682C26.299 32.237 25.6631 32.5004 25 32.5004H15C14.337 32.5004 13.7011 32.237 13.2323 31.7682C12.7634 31.2993 12.5 30.6634 12.5 30.0004V29.0629C12.499 28.6804 12.4112 28.3032 12.2435 27.9595C12.0757 27.6158 11.8322 27.3146 11.5313 27.0785C9.89545 25.8026 8.5703 24.1723 7.65554 22.3103C6.74077 20.4483 6.26022 18.4031 6.25003 16.3285C6.20315 8.8754 12.2344 2.67227 19.6719 2.5004C21.5056 2.45449 23.3298 2.77634 25.0371 3.44695C26.7443 4.11756 28.3 5.12335 29.6122 6.40497C30.9244 7.68659 31.9666 9.21806 32.6772 10.909C33.3879 12.6 33.7527 14.4162 33.75 16.2504ZM25.8907 16.6098C25.6537 16.375 25.3336 16.2434 25 16.2434C24.6665 16.2434 24.3464 16.375 24.1094 16.6098L20 20.7348L15.8907 16.6098C15.6478 16.4104 15.3395 16.3086 15.0256 16.324C14.7118 16.3394 14.415 16.471 14.1928 16.6932C13.9706 16.9153 13.839 17.2122 13.8236 17.526C13.8082 17.8398 13.9101 18.1482 14.1094 18.391L18.75 23.016V28.7504C18.75 29.0819 18.8817 29.3999 19.1161 29.6343C19.3506 29.8687 19.6685 30.0004 20 30.0004C20.3315 30.0004 20.6495 29.8687 20.8839 29.6343C21.1183 29.3999 21.25 29.0819 21.25 28.7504V23.016L25.8907 18.391C26.1254 18.154 26.2571 17.834 26.2571 17.5004C26.2571 17.1668 26.1254 16.8468 25.8907 16.6098Z" fill="#171717"/>
</svg>
