<svg width="94" height="24" viewBox="0 0 94 24" fill="none" xmlns="http://www.w3.org/2000/svg">
    <g clip-path="url(#clip0_103_206)">
        <mask id="mask0_103_206" style="mask-type:luminance" maskUnits="userSpaceOnUse" x="1" y="7" width="92" height="14">
            <path d="M93 7H1V20.4167H93V7Z" fill="white"/>
        </mask>
        <g mask="url(#mask0_103_206)">
            <path d="M4.63589 9.34375C6.61195 9.34375 8.19926 10.8504 8.19926 12.8928C8.19926 14.9017 6.57955 16.4419 4.73307 16.4419C3.85843 16.4419 3.01617 16.1741 2.40068 15.4374H2.33589V20.5936H1.00772V13.4285C1.00772 10.9509 2.40068 9.34375 4.63589 9.34375ZM4.60349 15.2366C5.89927 15.2366 6.80631 14.1652 6.80631 12.8593C6.80631 11.587 5.93167 10.5156 4.60349 10.5156C3.27533 10.5156 2.36828 11.5535 2.36828 12.8593C2.36828 14.1652 3.30772 15.2366 4.60349 15.2366Z" fill="#8C64D8"/>
            <path d="M9.43039 12.8928C9.43039 10.8504 11.0825 9.34375 13.0262 9.34375C14.9698 9.34375 16.6219 10.8504 16.6219 12.8928C16.6219 14.9352 14.9698 16.4419 13.0262 16.4419C11.0825 16.4419 9.43039 14.9352 9.43039 12.8928ZM13.0262 15.2366C14.3543 15.2366 15.229 14.1986 15.229 12.8928C15.229 11.587 14.3219 10.5491 13.0262 10.5491C11.7304 10.5491 10.8234 11.587 10.8234 12.8928C10.8234 14.1986 11.698 15.2366 13.0262 15.2366Z" fill="#8C64D8"/>
            <path d="M21.4811 16.4419C19.4078 16.4419 17.8529 14.9352 17.8529 12.8928C17.8529 10.8504 19.3754 9.34375 21.4486 9.34375C23.036 9.34375 24.4937 10.2143 24.8825 11.9219H23.5219C23.198 11.0178 22.3881 10.5491 21.4811 10.5491C20.0881 10.5491 19.2459 11.6205 19.2459 12.9263C19.2459 14.2321 20.1205 15.27 21.5135 15.27C22.4205 15.27 23.2304 14.8348 23.5543 13.8638H24.9149C24.4289 15.6049 23.0036 16.4419 21.4811 16.4419Z" fill="#8C64D8"/>
            <path d="M29.8064 15.4708L27.6359 10.7833H27.6035V16.3079H26.3402V9.47754H28.3486L30.4867 14.1315H30.5191L32.6571 9.47754H34.6656V16.2744H33.4022V10.7833H33.3698L31.1993 15.4708H29.8064Z" fill="#8C64D8"/>
            <path d="M36.0909 12.8928C36.0909 10.8504 37.743 9.34375 39.6867 9.34375C41.6304 9.34375 43.2825 10.8504 43.2825 12.8928C43.2825 14.9352 41.6304 16.4419 39.6867 16.4419C37.743 16.4419 36.0909 14.9352 36.0909 12.8928ZM39.7191 15.2366C41.0473 15.2366 41.922 14.1986 41.922 12.8928C41.922 11.587 41.0149 10.5491 39.7191 10.5491C38.3909 10.5491 37.5163 11.587 37.5163 12.8928C37.4839 14.1986 38.3909 15.2366 39.7191 15.2366Z" fill="#8C64D8"/>
            <path d="M43.9628 16.3414V14.9351H43.9952C44.2544 14.9351 44.5459 14.8347 44.7403 14.6003C44.9994 14.3324 45.0966 13.7967 45.2262 13.0601L45.4206 11.9552C45.6473 10.7164 46.0685 9.44409 47.8825 9.44409H50.4417V16.2744H49.1135V10.7164H48.0769C47.0403 10.7164 46.8459 11.0177 46.5867 12.4575L46.4248 13.4619C46.2628 14.3994 46.0361 15.203 45.5825 15.7052C45.2262 16.107 44.7403 16.3079 44.06 16.3079H43.9628V16.3414Z" fill="#8C64D8"/>
            <path d="M51.9318 12.8928C51.9318 10.8504 53.5839 9.34375 55.5276 9.34375C57.4712 9.34375 59.1233 10.8504 59.1233 12.8928C59.1233 14.9352 57.4712 16.4419 55.5276 16.4419C53.5839 16.4419 51.9318 14.9352 51.9318 12.8928ZM55.5276 15.2366C56.8557 15.2366 57.7304 14.1986 57.7304 12.8928C57.7304 11.587 56.8233 10.5491 55.5276 10.5491C54.1994 10.5491 53.3247 11.587 53.3247 12.8928C53.3247 14.1986 54.2318 15.2366 55.5276 15.2366Z" fill="#8C64D8"/>
            <path d="M60.6783 17.9485H59.4149V15.0356H60.2572C60.6459 14.6003 60.8402 13.9306 61.0022 13.1606L61.2938 11.8883C61.5529 10.6829 62.0712 9.44409 63.6909 9.44409H66.2504V15.0356H67.1896V17.9485H65.9258V16.3079H60.6459V17.9485H60.6783ZM64.9541 15.0691V10.7164H63.7233C62.9135 10.7164 62.6543 11.3861 62.4923 12.0892L62.2008 13.3949C62.0388 14.1316 61.8121 14.7342 61.5529 14.9686V15.0691H64.9541Z" fill="#8C64D8"/>
            <path d="M71.7896 16.4419C69.6838 16.4419 68.1613 14.9352 68.1613 12.8928C68.1613 10.8504 69.6838 9.34373 71.725 9.34373C73.312 9.34373 75.191 10.4152 75.191 12.9933V13.2611H69.457C69.5867 14.3995 70.4613 15.2366 71.757 15.2366C72.5345 15.2366 73.4417 14.9352 73.7011 14.2656H75.0613C74.6729 15.7723 73.1504 16.4419 71.7896 16.4419ZM69.5221 7H70.8823V8.40624H69.5221V7ZM73.8628 12.2232C73.6685 11.1852 72.891 10.5156 71.725 10.5156C70.591 10.5156 69.7809 11.2522 69.5541 12.2232H73.8628ZM72.47 7H73.8302V8.40624H72.47V7Z" fill="#8C64D8"/>
            <path d="M81.4431 9.47754V12.1896H82.5446L84.0996 9.47754H85.5569L83.6134 12.7253L85.6866 16.2744H84.1967L82.5446 13.3949H81.4106V16.2744H80.1794V13.3949H79.078L77.4264 16.2744H75.9359L78.0091 12.7253L76.0656 9.47754H77.5236L79.078 12.1896H80.1794V9.47754H81.4431Z" fill="#8C64D8"/>
            <path d="M86.6265 13.2275L86.5939 9.47754H87.9221V11.4195H87.9541C88.5048 10.7164 89.2178 10.3815 90.0598 10.3815C91.6794 10.3815 92.9757 11.6204 92.9757 13.3614C92.9757 15.136 91.6475 16.4418 89.8011 16.4418C87.9866 16.4418 86.6265 15.1025 86.6265 13.2275ZM89.8011 15.2364C90.8374 15.2364 91.6149 14.4663 91.6149 13.4284C91.6149 12.3905 90.8374 11.5869 89.8011 11.5869C88.7642 11.5869 88.0192 12.357 88.0192 13.4284C88.0192 14.4998 88.7642 15.2364 89.8011 15.2364Z" fill="#8C64D8"/>
        </g>
    </g>
    <defs>
        <clipPath id="clip0_103_206">
            <rect width="94" height="24" fill="white"/>
        </clipPath>
    </defs>
</svg>
