<svg width="210" height="49" viewBox="0 0 210 49" fill="none" xmlns="http://www.w3.org/2000/svg"><path d="M28.934 35.699H22.32v-4.685H9.055v4.685H2.442V25.306H4.86c1.588-2.57 2.267-6.953 2.457-11.64l.076-1.927h18.33v13.567h3.212V35.7h-.001zM18.54 25.306v-7.86h-4.836c0 .188-.076.944-.076 1.095-.265 2.873-.87 5.216-1.738 6.765h6.652-.002zM30.9 21.376c0-6.765 4.724-10.13 12.132-10.13 7.408 0 12.13 3.25 12.13 10.13 0 6.879-4.383 10.128-12.13 10.128-7.747 0-12.132-3.023-12.132-10.128zm16.817 0c0-3.363-1.55-4.724-4.685-4.724-3.136 0-4.687 1.398-4.687 4.724 0 3.326 1.852 4.724 4.687 4.724 3.099 0 4.685-1.437 4.685-4.724zM62.797 15.859c1.21-1.777 3.93-3.515 8.617-3.515 7.03 0 10.62 3.476 10.62 9.448 0 6.916-5.328 9.712-12.018 9.712-5.744 0-12.47-1.927-12.47-12.396 0-12.282 5.82-14.777 14.323-15.457 4.535-.377 6.122-.642 7.86-1.21v5.86c-1.247.528-3.4.983-6.651 1.247-5.896.49-10.167 1.285-10.355 6.312h.075v-.001zm7.218 10.24c3.288 0 4.573-1.926 4.573-4.232 0-2.305-1.248-4.08-4.649-4.08-3.4 0-4.723 1.89-4.723 4.08 0 2.192 1.246 4.232 4.8 4.232zM92.274 38.949h-7.18v-27.21h6.991v2.759h.076c1.398-1.853 3.627-3.138 7.37-3.138 5.971 0 9.447 2.835 9.447 9.864 0 5.896-3.099 10.166-9.826 10.166-3.364 0-5.707-1.399-6.802-2.682h-.076v10.24zm9.184-17.762c0-3.06-1.549-4.384-4.61-4.384-3.062 0-4.573 1.738-4.573 4.761 0 2.797 1.701 4.384 4.687 4.384s4.496-1.474 4.496-4.763v.002zM111.171 21.376c0-6.765 4.724-10.13 12.132-10.13 7.409 0 12.131 3.25 12.131 10.13 0 6.879-4.384 10.128-12.131 10.128s-12.132-3.023-12.132-10.128zm16.818 0c0-3.363-1.549-4.724-4.686-4.724-3.136 0-4.686 1.398-4.686 4.724 0 3.326 1.852 4.724 4.686 4.724 3.099 0 4.686-1.437 4.686-4.724zM142.495 31.542c-2.76 0-4.573-1.55-4.573-3.93 0-2.381 1.625-3.93 4.573-3.93 2.947 0 4.724 1.587 4.724 3.93 0 2.342-1.701 3.93-4.724 3.93zM158.175 38.949h-7.18v-27.21h6.992v2.759h.076c1.398-1.853 3.627-3.138 7.369-3.138 5.972 0 9.448 2.835 9.448 9.864 0 5.896-3.099 10.166-9.827 10.166-3.363 0-5.707-1.399-6.802-2.682h-.076v10.24zm9.184-17.762c0-3.06-1.549-4.384-4.611-4.384-3.061 0-4.573 1.738-4.573 4.761 0 2.797 1.701 4.384 4.686 4.384 2.984 0 4.498-1.474 4.498-4.763v.002zM189.468 31.24c-.756.113-1.474.15-2.266.15-5.557 0-10.129-2.153-10.129-9.976 0-7.822 4.687-10.052 10.129-10.052.943 0 1.586.038 2.266.15V2.669h7.181v8.843a15.97 15.97 0 0 1 2.343-.15c5.669 0 10.053 2.117 10.053 9.9 0 7.785-4.799 10.13-10.204 10.13-.907 0-1.55-.076-2.192-.152v7.71h-7.181v-7.71zm0-14.437c-.264-.038-.605-.038-1.021-.038-2.493 0-3.817 1.059-3.817 4.61 0 3.552 1.285 4.611 3.967 4.611.304 0 .606 0 .869-.038v-9.146l.002.001zm7.18 9.146c.264.039.604.039 1.019.039 2.495 0 3.856-1.135 3.856-4.687 0-3.552-1.248-4.535-4.007-4.535-.303 0-.567.039-.868.039v9.146-.002z" fill="#540575"/><path d="M65.747 36.309c-1.685-1.782-3.873-1.744-6.01.259l-.002-.004-3.306 3.306-3.306-3.306-.001.004c-2.14-2.004-4.327-2.043-6.01-.26-1.57 1.662-1.4 3.91.38 5.766 0 .003.779.788 1.039 1.049a11.117 11.117 0 0 0 7.898 3.273c2.86 0 5.72-1.089 7.898-3.273l1.04-1.049c1.779-1.855 1.949-4.104.38-5.765z" fill="#FF6614"/></svg>