<svg width="170" height="32" viewBox="0 0 170 32" fill="none" xmlns="http://www.w3.org/2000/svg">
<mask id="mask0_18107_64033" style="mask-type:luminance" maskUnits="userSpaceOnUse" x="0" y="0" width="170" height="32">
<path d="M170 0.0625H0V31.9375H170V0.0625Z" fill="white"/>
</mask>
<g mask="url(#mask0_18107_64033)">
<path d="M25.1491 21.9651C25.1491 27.9114 20.5196 31.7513 13.3631 31.7513C6.77835 31.7513 0.894531 27.725 0.894531 21.9651V21.3686H7.16568V21.9651C7.12879 24.668 10.5226 25.7864 13.0679 25.7677C15.7793 25.7491 18.6013 24.1088 18.5275 22.021C18.4353 19.4673 17.1442 18.032 11.6662 18.032V12.9618C16.1666 12.8313 17.9189 11.3028 17.9189 9.47608C17.9189 7.53749 15.1891 6.32586 13.3631 6.32586C10.6333 6.32586 8.43836 7.70525 8.43836 10.0167V10.6131H2.16721V10.0167C2.16721 4.25678 6.15123 0.230469 12.7544 0.230469C19.9109 0.230469 24.5405 4.07038 24.5405 10.0167C24.5405 12.1417 23.2309 13.9311 21.1282 15.2919C23.692 16.9136 25.1491 19.2436 25.1491 21.9651Z" fill="#2E54DB" stroke="black" stroke-width="0.5" stroke-linejoin="round"/>
<path d="M169.105 1.66406V31.3395H162.926V14.3395L156.36 31.3395H151.472L144.905 14.3209V31.3395H138.727V1.66406H145.551L153.925 25.0018L162.28 1.66406H169.105Z" fill="#2E54DB" stroke="black" stroke-width="0.5" stroke-linejoin="round"/>
<path d="M33.1153 12.2723H45.5285V1.05078H52.0579V30.7262H45.5285V18.1999H33.1153V30.7262H26.5859V1.05078H33.1153V12.2723Z" fill="#2E54DB" stroke="black" stroke-width="0.5" stroke-linejoin="round"/>
<path d="M71.961 24.5935H61.134L58.8469 30.7262H52.668L63.458 1.05078H70.2825L80.4086 30.7262H74.2297L71.961 24.5935ZM69.9136 19.1133L66.5383 10.0727L63.1629 19.1133H69.9136Z" fill="#2E54DB" stroke="black" stroke-width="0.5" stroke-linejoin="round"/>
<path d="M117.15 1.66406V21.0314L131.352 1.66406H137.513V31.3395H131.352V11.7858L117.168 31.3395H111.008V1.66406H117.15Z" fill="#2E54DB" stroke="black" stroke-width="0.5" stroke-linejoin="round"/>
<path d="M106.395 19.1122C106.358 19.1308 106.137 19.2427 106.137 19.2613V22.4488C107.373 21.61 108.553 20.7525 109.844 19.9883C110.231 19.7646 110.619 19.5409 111.006 19.3172V16.8008C109.77 17.3414 108.553 17.9378 107.354 18.5716C107.041 18.758 106.709 18.9258 106.395 19.1122Z" fill="#2E54DB" stroke="black" stroke-width="0.708333" stroke-linejoin="round"/>
<path d="M80.4459 22.3203C80.0586 22.9541 79.1732 23.737 78.583 24.1657C78.4723 24.2403 78.3617 24.3148 78.2694 24.3894C76.4065 25.5637 73.8428 25.8806 71.9983 24.6504C71.9614 24.6317 71.9245 24.6131 71.8876 24.5758H69.9141C70.6703 25.5451 71.6663 26.328 72.8099 26.8126C73.8796 27.2786 75.097 27.5023 76.3328 27.3905C77.2734 27.3159 78.1957 27.0922 79.0626 26.7008C79.2839 26.6076 79.4868 26.4958 79.6897 26.3839C80.4828 25.9365 81.2021 25.3028 81.6264 24.4826C81.6264 24.5012 80.4459 22.3203 80.4459 22.3203Z" fill="#2E54DB" stroke="black" stroke-width="0.5" stroke-linejoin="round"/>
<path d="M118.827 16.1495C118.79 15.9071 118.734 15.6835 118.605 15.4784C118.292 14.9565 117.738 14.7887 117.148 14.7887V17.417C117.314 17.6966 117.259 18.0508 117.148 18.3677C117.093 18.5168 117.019 18.6473 116.964 18.7405C116.816 18.9828 115.175 21.4992 110.988 23.9225C107.612 25.8797 102.595 27.781 95.3649 28.3962C82.9517 29.4587 89.2967 23.4565 90.9751 22.0771C91.1965 21.8907 91.3994 21.7416 91.5469 21.6297C94.7747 19.0946 98.1685 16.7273 101.47 14.2854C103.831 12.5332 106.21 10.781 108.59 9.04749C109.401 8.46964 110.194 7.87315 111.006 7.2953C111.393 7.01569 111.781 6.73608 112.168 6.45648C112.961 5.89727 113.791 5.37534 114.547 4.76021C115.156 4.25692 115.986 3.5113 116.152 2.69113C116.226 2.31832 116.152 1.96415 115.986 1.66591C115.783 1.2931 115.414 0.994856 115.027 0.845734C112.279 -0.235407 109.549 2.52337 107.741 4.23828C106.174 5.72951 104.55 7.18345 102.927 8.61876C101.452 9.90495 99.9761 11.2657 98.2238 12.1791C96.6561 12.9992 94.8669 13.3348 93.1147 13.3534C92.3769 13.3721 90.2373 13.3534 90.8276 12.0672C91.1042 11.4707 92.4691 10.0168 92.8934 9.53214C94.332 7.89179 96.4163 5.50582 95.1067 3.21306C93.9263 1.14398 91.0489 1.1067 88.9647 1.34902C83.8924 1.92687 79.2813 3.90275 75.4079 7.18345C74.6148 7.85451 73.8401 8.58148 73.1023 9.32709C72.8995 9.53214 72.6782 9.75582 72.4753 9.97951C70.8153 11.7317 69.5057 13.894 68.8232 16.224C68.5465 17.1747 68.3806 18.144 68.3438 19.1133H69.7639C69.7823 19.0201 69.7823 18.9082 69.8008 18.815C69.8377 18.5727 69.8745 18.349 69.9114 18.1067C69.9114 18.0508 69.9299 17.9949 69.9483 17.9576C70.0405 17.4916 70.1881 17.0256 70.3541 16.5782C71.0919 14.565 72.2908 12.7196 73.7295 11.1166C74.1352 10.6506 74.5779 10.2032 75.0206 9.7931C77.1786 7.72402 79.8715 6.21416 82.7304 5.3567C84.2982 4.89069 87.028 4.21964 88.4667 5.37534C89.4996 6.19552 88.356 7.5749 87.7658 8.28323C86.4193 9.90494 86.2164 12.4028 87.9318 13.7076C90.4771 15.6462 96.3425 14.3227 96.3425 14.3227C96.3425 14.3227 88.5036 20.6791 86.3271 22.6177C84.7962 23.9971 81.8082 26.5135 83.1177 28.974C83.9109 30.4653 85.7369 30.8194 87.2678 31.0058C90.8091 31.4346 94.4243 31.099 97.8734 30.2229C99.6994 29.7569 101.507 29.2536 103.278 28.6385C105.048 28.042 106.856 27.315 108.571 26.4762C109.383 26.0848 110.194 25.6374 110.988 25.19C112.684 24.2021 114.308 23.065 115.746 21.7602C116.244 21.3128 116.724 20.8468 117.148 20.3249C117.72 19.6352 118.199 18.8896 118.513 18.0508C118.55 17.9389 118.587 17.8457 118.624 17.7339C118.79 17.212 118.882 16.6714 118.827 16.1495Z" fill="#2E54DB" stroke="black" stroke-width="0.5" stroke-linejoin="round"/>
</g>
</svg>
