<svg width="170" height="95" viewBox="0 0 170 95" fill="none" xmlns="http://www.w3.org/2000/svg"><g clip-path="url(#a)"><mask id="b" style="mask-type:luminance" maskUnits="userSpaceOnUse" x="0" y="0" width="170" height="95"><path d="M0 0h170v94.714H0V0z" fill="#fff"/></mask><g mask="url(#b)"><path d="M34.278 57.488v3.539H23.175c-4.822-.035-8.36-3.782-8.36-8.396v-8.396h3.538v7.945c0 2.775 2.151 5.1 4.857 5.308h5.76V44.235h3.538v13.253h1.77zm7.042-9.75v3.123h8.604V54.4H41.32v3.088H52.84v3.539H37.782V44.235h15.057v3.504H41.32z" fill="#2C2B2B"/></g><mask id="c" style="mask-type:luminance" maskUnits="userSpaceOnUse" x="0" y="0" width="170" height="95"><path d="M0 0h170v94.714H0V0z" fill="#fff"/></mask><g mask="url(#c)"><path d="M59.916 71.192h7.945V54.4h-7.945v16.792zm7.945 15.439v-11.9h-7.945v11.9h-3.539V38.926h3.54v11.935h7.944V38.927H71.4V86.63H67.86z" fill="#3E529B"/></g><mask id="d" style="mask-type:luminance" maskUnits="userSpaceOnUse" x="0" y="0" width="170" height="95"><path d="M0 0h170v94.714H0V0z" fill="#fff"/></mask><g mask="url(#d)"><path d="M102.347 44.235H93.5v16.792h3.539V56.62h5.308c3.4 0 6.175-2.775 6.175-6.175 0-3.435-2.775-6.21-6.175-6.21zm0 8.812h-5.308v-5.308h5.308a2.636 2.636 0 0 1 2.637 2.637c0 1.491-1.18 2.671-2.637 2.671zm-11.484 28.31h3.539l-7.945-16.792h-3.539l-7.98 16.792h3.54l1.665-3.539h9.055l1.665 3.54zm-9.055-7.077 2.88-6.072 2.845 6.072h-5.725zm27.616-9.715v6.627h-7.979v-6.627h-3.539v16.792h3.539v-6.626h7.979v6.626h3.539V64.565h-3.539zm24.286 0v16.792h-3.539v-1.492a8.355 8.355 0 0 1-4.926 1.596c-4.753-.034-8.535-3.573-8.778-8.049v-8.847h3.574v8.188c0 2.81 2.29 5.1 5.1 5.1 2.81 0 5.1-2.29 5.1-5.1v-8.188h3.469zm3.574 8.813v-.451a.979.979 0 0 0 0 .45z" fill="#2C2B2B"/></g><mask id="e" style="mask-type:luminance" maskUnits="userSpaceOnUse" x="0" y="0" width="170" height="95"><path d="M0 0h170v94.714H0V0z" fill="#fff"/></mask><g mask="url(#e)"><path d="M154.492 64.565v16.792h-3.539v-1.492a8.36 8.36 0 0 1-4.926 1.596c-4.753-.034-8.535-3.573-8.778-8.049v-8.847h3.539v8.188c0 2.81 2.29 5.1 5.1 5.1 2.81 0 5.1-2.29 5.1-5.1v-8.188h3.504zm-11.935-3.538h6.627v3.538h-6.627v-3.538zm-89.718 15.23a5.054 5.054 0 0 1-4.857 5.066H37.816v-3.54h10.166a1.534 1.534 0 0 0 1.318-1.526c0-.798-.59-1.422-1.318-1.526H37.816v-3.54h9.506c.868 0 1.562-.693 1.562-1.56 0-.868-.694-1.562-1.562-1.562h-9.506v-3.538h9.715c2.706.104 4.857 2.359 4.857 5.065 0 1.145-.382 2.22-1.006 3.053a5.208 5.208 0 0 1 1.457 3.608zM89.96 44.235H74.94v3.504h5.759v13.288h3.504V47.739h5.76v-3.504z" fill="#2C2B2B"/></g><mask id="f" style="mask-type:luminance" maskUnits="userSpaceOnUse" x="0" y="0" width="170" height="95"><path d="M0 0h170v94.714H0V0z" fill="#fff"/></mask><g mask="url(#f)"><path d="M39.065 8.084h-3.747L27.512 22.55 19.741 8.084h-4.718v26.714h5.1V17.382l5.759 10.997h3.26l5.795-10.997v17.416h5.065V8.084h-.937zm20.192 0h-6.106l-9.992 26.68h5.308l2.082-5.378h11.31l2.082 5.377h5.308l-9.992-26.68zm-7.39 16.965 4.302-11.796 4.337 11.796h-8.639zM98.218 8.084V30.01h-7.632V8.084h-5.308V30.01H77.68V8.084H72.37l-.034 26.714h31.12l.035-26.714h-5.274zm31.086 0h-4.267l-5.864 13.322-7.112-13.322h-5.724l10.304 19.012c-.208.347-.382.659-.555.971a4.985 4.985 0 0 1-1.492 1.561c-.521.313-1.18.451-1.908.451h-4.164v4.684h4.545c1.249 0 2.36-.139 3.227-.416a6.736 6.736 0 0 0 2.359-1.388c.659-.59 1.249-1.457 1.839-2.394.59-.971 1.145-2.22 1.804-3.573l8.292-18.908h-1.284zm25.882 26.714-8.708-13.808 7.979-12.906h-6.141l-6.661 10.824h-3.296V8.084h-5.308v26.714h5.308V23.66h3.504l7.078 11.137h6.245z" fill="#3E529B"/></g></g><defs><clipPath id="a"><path fill="#fff" d="M0 0h170v94.714H0z"/></clipPath></defs></svg>