<svg width="82" height="160" viewBox="0 0 82 160" fill="none" xmlns="http://www.w3.org/2000/svg">
<path d="M30.2053 77.5466H2.9833C2.14891 77.5466 1.83602 76.5036 2.51396 76.0342L79.5387 25.6578C80.2166 25.2406 80.9989 25.8664 80.7381 26.5965L32.552 159.473C32.2391 160.308 30.9875 160.099 30.9875 159.213V78.3288C30.9875 77.9116 30.6225 77.5466 30.2053 77.5466Z" fill="#E53130"/>
<path d="M10.0226 16.4271V2.81607H3.66041V16.4271H0.375V0H13.3081V16.4271H10.0226Z" fill="#E53130"/>
<path d="M22.591 9.17823C22.591 8.70888 22.4867 8.34384 22.3302 8.03094C22.2259 7.66589 22.0173 7.40515 21.8087 7.19655C21.6001 6.98795 21.3394 6.77935 21.0265 6.7272C20.7136 6.6229 20.4529 6.57076 20.14 6.57076C19.5142 6.57076 18.9927 6.8315 18.5233 7.30085C18.054 7.77019 17.7932 8.39599 17.7411 9.23038H22.591V9.17823ZM17.6368 11.2121C17.6889 12.1507 17.9497 12.8808 18.419 13.4023C18.8884 13.9238 19.5142 14.2367 20.2964 14.2367C20.8179 14.2367 21.2351 14.1324 21.6523 13.8717C22.0695 13.6109 22.3302 13.298 22.4345 12.8808H25.6678C25.3027 14.1324 24.677 15.0711 23.7383 15.7491C22.7996 16.427 21.7566 16.7399 20.4529 16.7399C16.4895 16.7399 14.5078 14.5496 14.5078 10.1169C14.5078 9.17823 14.6121 8.34384 14.8729 7.56159C15.1336 6.77935 15.4987 6.15356 15.968 5.63206C16.4895 5.11057 17.0631 4.69337 17.7932 4.38048C18.5233 4.06758 19.3056 3.91113 20.2443 3.91113C22.0695 3.91113 23.4775 4.53693 24.3641 5.73636C25.3027 6.9358 25.7721 8.76103 25.7721 11.1599H17.6368V11.2121Z" fill="#E53130"/>
<path d="M32.7089 14.0285C34.482 14.0285 35.4207 12.7769 35.4207 10.2737C35.4207 9.17856 35.1599 8.29202 34.6906 7.61408C34.1691 6.93614 33.5433 6.57109 32.761 6.57109C32.031 6.57109 31.353 6.88399 30.8837 7.50978C30.3622 8.13557 30.1536 8.96996 30.1536 10.013C30.1014 12.7247 30.988 14.0285 32.7089 14.0285ZM27.1289 22.2159V4.32868H30.1536V5.78885C30.8837 4.58942 31.9788 3.96362 33.439 3.96362C34.1691 3.96362 34.847 4.12008 35.4728 4.43297C36.0986 4.74587 36.6723 5.16306 37.0895 5.7367C37.5588 6.31034 37.8717 6.98829 38.1324 7.77053C38.3932 8.55277 38.4975 9.49146 38.4975 10.5344C38.4975 11.4731 38.3932 12.3075 38.1846 13.0898C37.976 13.872 37.6631 14.4978 37.2459 15.0715C36.8287 15.6451 36.3072 16.0623 35.6814 16.3752C35.1078 16.6881 34.4298 16.8445 33.6476 16.8445C32.1874 16.8445 31.0401 16.2187 30.1536 14.9672V22.3202H27.1289V22.2159Z" fill="#E53130"/>
<path d="M39.8008 16.4272V4.27637H47.9882C48.7183 4.27637 49.292 4.38067 49.7613 4.53711C50.2307 4.69356 50.6479 4.90216 50.9608 5.16291C51.2737 5.42366 51.4823 5.73655 51.5866 6.1016C51.6909 6.46664 51.7952 6.83169 51.7952 7.24889C51.7952 7.97898 51.5866 8.55262 51.2215 9.02197C50.8565 9.43916 50.3871 9.75206 49.8656 9.90851C50.1785 9.96066 50.4393 10.065 50.7 10.2736C50.9608 10.43 51.2215 10.6386 51.4301 10.8472C51.6387 11.1079 51.8473 11.4208 51.9516 11.7859C52.0559 12.1509 52.1602 12.5681 52.1602 13.0375C52.1602 13.559 52.0559 14.0283 51.8995 14.4455C51.743 14.8627 51.4301 15.2278 51.0651 15.5407C50.7 15.8535 50.2307 16.0621 49.6049 16.2707C49.0312 16.4272 48.3011 16.5315 47.4667 16.5315H39.8008V16.4272ZM46.9974 14.1848C48.3533 14.1848 49.0312 13.6111 49.0312 12.516C49.0312 11.4208 48.4054 10.8993 47.1539 10.8993H42.7211V14.1848H46.9974ZM47.1017 9.02197C47.6232 9.02197 48.0404 8.91767 48.3011 8.70907C48.614 8.50047 48.7183 8.18758 48.7183 7.82253C48.7183 6.88384 48.1447 6.4145 46.9974 6.4145H42.7733V8.96982H47.1017V9.02197Z" fill="#E53130"/>
<path d="M56.5403 4.27579V8.13484H60.5037C61.8595 8.13484 62.9025 8.49988 63.6848 9.17783C64.467 9.85577 64.8321 10.8988 64.8321 12.2025C64.8321 13.5584 64.467 14.6014 63.6848 15.3315C62.9547 16.0616 61.8595 16.3745 60.5037 16.3745H53.5156V4.22363H56.5403V4.27579ZM56.5403 10.4816V14.0799H60.2951C60.8687 14.0799 61.338 13.9234 61.6509 13.6105C61.9638 13.2976 62.1203 12.8283 62.1203 12.2546C62.1203 11.681 61.9638 11.2117 61.6509 10.8988C61.338 10.5859 60.8687 10.4294 60.2951 10.4294H56.5403V10.4816ZM65.8229 16.4266V4.27579H68.9519V16.4266H65.8229Z" fill="#E53130"/>
<path d="M78.4425 9.17823C78.4425 8.70888 78.3382 8.34384 78.1818 8.03094C78.0775 7.66589 77.8689 7.40515 77.6603 7.19655C77.4517 6.98795 77.191 6.77935 76.8781 6.7272C76.5652 6.6229 76.3044 6.57076 75.9915 6.57076C75.3657 6.57076 74.8442 6.8315 74.3749 7.30085C73.9055 7.77019 73.6448 8.39599 73.5926 9.23038H78.4425V9.17823ZM73.4883 11.2121C73.5405 12.1507 73.8012 12.8808 74.2706 13.4023C74.7399 13.9238 75.3657 14.2367 76.148 14.2367C76.6695 14.2367 77.0867 14.1324 77.5038 13.8717C77.921 13.6109 78.1818 13.298 78.2861 12.8808H81.5194C81.1543 14.1324 80.5285 15.0711 79.5898 15.7491C78.6511 16.427 77.6081 16.7399 76.3044 16.7399C72.3411 16.7399 70.3594 14.5496 70.3594 10.1169C70.3594 9.17823 70.4637 8.34384 70.7244 7.56159C70.9852 6.77935 71.3502 6.15356 71.8196 5.63206C72.341 5.11057 72.9147 4.69337 73.6448 4.38048C74.3749 4.06758 75.1571 3.91113 76.0958 3.91113C77.921 3.91113 79.3291 4.53693 80.2156 5.73636C81.1543 6.9358 81.6237 8.76103 81.6237 11.1599H73.4883V11.2121Z" fill="#E53130"/>
</svg>
