<svg width="154" height="24" viewBox="0 0 154 24" fill="none" xmlns="http://www.w3.org/2000/svg">
<path d="M31.9501 12.167H32.3407C32.6051 12.167 32.8491 12.2041 33.0715 12.2777C33.294 12.3512 33.4858 12.4607 33.6474 12.6057C33.8079 12.7506 33.9328 12.9278 34.0206 13.1376C34.1089 13.3474 34.1531 13.586 34.1531 13.8536C34.1531 14.1261 34.1041 14.3681 34.0071 14.58C33.9102 14.792 33.7793 14.9713 33.6139 15.1184C33.4486 15.2661 33.2553 15.3773 33.0355 15.4536C32.8146 15.5293 32.5831 15.5669 32.3407 15.5669H31.9501V16.1494H30.965V15.5669H30.574C30.31 15.5669 30.066 15.5304 29.8436 15.4568C29.6206 15.3832 29.43 15.2737 29.2716 15.1288C29.1122 14.9839 28.9894 14.8061 28.901 14.5969C28.8127 14.3871 28.7686 14.1484 28.7686 13.8803C28.7686 13.6084 28.817 13.3664 28.914 13.1545C29.0109 12.9425 29.1423 12.7626 29.3077 12.6155C29.473 12.4684 29.6648 12.3567 29.8835 12.2809C30.1011 12.2052 30.3316 12.167 30.574 12.167H30.965V11.5714H31.9501V12.167ZM30.6074 13.0308C30.3295 13.0308 30.1183 13.1065 29.9723 13.258C29.8269 13.4101 29.7542 13.6149 29.7542 13.8738C29.7542 14.137 29.8302 14.3403 29.9826 14.483C30.1345 14.6258 30.3429 14.6972 30.6074 14.6972H30.965V13.0308H30.6074ZM32.3072 14.7037C32.5852 14.7037 32.7969 14.628 32.9429 14.4759C33.0883 14.3244 33.1605 14.119 33.1605 13.8607C33.1605 13.5975 33.0851 13.3942 32.9326 13.2515C32.7802 13.1087 32.5723 13.0373 32.3072 13.0373H31.9501V14.7037H32.3072Z" fill="#393536"/>
<path d="M38.287 11.749C38.5784 11.8673 38.8267 12.0313 39.0314 12.2411C39.2366 12.4504 39.3965 12.6972 39.5108 12.9806C39.626 13.2634 39.6831 13.5724 39.6831 13.9076C39.6831 14.2285 39.626 14.5309 39.5108 14.8144C39.3965 15.0977 39.2355 15.3451 39.0282 15.5571C38.8213 15.769 38.573 15.9364 38.2837 16.059C37.995 16.1816 37.6762 16.2432 37.3282 16.2432C36.9841 16.2432 36.669 16.1838 36.3824 16.0655C36.0958 15.9473 35.8476 15.7833 35.6381 15.574C35.4285 15.3642 35.2664 15.1162 35.1522 14.8307C35.037 14.5451 34.9799 14.2373 34.9799 13.9076C34.9799 13.586 35.037 13.2825 35.1522 12.997C35.2664 12.7114 35.4285 12.464 35.6381 12.2542C35.8476 12.0444 36.0958 11.8782 36.3824 11.7556C36.669 11.633 36.9841 11.5714 37.3282 11.5714C37.6762 11.5714 37.9961 11.6308 38.287 11.749ZM36.7562 12.5823C36.586 12.658 36.4428 12.7604 36.3258 12.8901C36.209 13.0193 36.1196 13.1713 36.0582 13.3451C35.9962 13.519 35.9655 13.7065 35.9655 13.9076C35.9655 14.1081 35.9962 14.2966 36.0582 14.4727C36.1196 14.6492 36.2101 14.8018 36.3296 14.9315C36.4481 15.0607 36.5914 15.162 36.7595 15.2356C36.927 15.3092 37.1166 15.3462 37.3282 15.3462C37.5442 15.3462 37.737 15.308 37.9067 15.2323C38.0769 15.1565 38.2202 15.053 38.3365 14.9212C38.454 14.7898 38.5423 14.6367 38.6015 14.4629C38.6608 14.289 38.691 14.1037 38.691 13.9076C38.691 13.7021 38.6597 13.5114 38.5983 13.3348C38.5364 13.1588 38.4475 13.0062 38.33 12.8765C38.2137 12.7474 38.0704 12.6471 37.9002 12.5757C37.7306 12.5043 37.5399 12.4684 37.3282 12.4684C37.1166 12.4684 36.9254 12.5065 36.7562 12.5823Z" fill="#393536"/>
<path d="M41.6761 13.4188H43.614V11.6651H44.6132V16.1494H43.614V14.349H41.6761V16.1494H40.6775V11.6651H41.6761V13.4188Z" fill="#393536"/>
<path d="M49.9111 15.2459H50.5526V15.52L50.4664 17.0862H49.5734L49.5341 16.1494H46.5378L46.485 17.0862H45.5849L45.5321 15.5271V15.2524H45.7169C45.8095 15.2524 45.9021 15.2191 45.9948 15.1521C46.0874 15.0851 46.165 14.9805 46.2264 14.8378C46.346 14.5696 46.4316 14.2241 46.485 13.8002C46.5378 13.3762 46.5636 12.908 46.5636 12.3947V11.6651H49.9111V15.2459ZM47.4243 14.1881C47.3489 14.6388 47.2476 14.9914 47.1195 15.2459H48.919V12.562H47.5428C47.5385 13.1958 47.4986 13.7375 47.4243 14.1881Z" fill="#393536"/>
<path d="M57.6482 16.1494H56.6491V12.5953H54.7704V16.1494H53.7712V11.6651H57.6482V16.1494Z" fill="#393536"/>
<path d="M61.5652 11.7823C61.7818 11.8608 61.9681 11.9697 62.1243 12.1104C62.281 12.2509 62.4011 12.4204 62.4852 12.6188C62.5686 12.8177 62.6107 13.0395 62.6107 13.2847C62.6107 13.5435 62.5633 13.7746 62.4685 13.9773C62.3737 14.1806 62.2433 14.3522 62.078 14.4928C61.9126 14.6334 61.7176 14.7408 61.493 14.8144C61.2679 14.8879 61.0255 14.9244 60.7648 14.9244H59.8654V16.1494H58.8732V11.6651H60.8445C61.109 11.6651 61.3492 11.7043 61.5652 11.7823ZM60.7648 14.0345C61.0298 14.0345 61.2366 13.9675 61.3869 13.8334C61.5366 13.6999 61.6116 13.519 61.6116 13.2918C61.6116 13.0684 61.5447 12.8913 61.41 12.7593C61.2754 12.6281 61.074 12.5621 60.8047 12.5621H59.8654V14.0345H60.7648Z" fill="#393536"/>
<path d="M66.8566 12.5686H64.5217V13.4122H66.6056V14.289H64.5217V15.2459H66.9691V16.1494H63.543V11.6651H66.8566V12.5686Z" fill="#393536"/>
<path d="M70.295 13.2983C70.3834 13.2226 70.4275 13.1174 70.4275 12.9839C70.4275 12.8144 70.3694 12.6858 70.2525 12.5991C70.1356 12.5119 69.9449 12.4684 69.68 12.4684C69.2658 12.4684 68.8774 12.6089 68.516 12.8901L68 12.2008C68.2472 11.9866 68.5128 11.828 68.7971 11.7256C69.0815 11.6232 69.3955 11.5714 69.7398 11.5714C70.0042 11.5714 70.2401 11.603 70.4475 11.6651C70.6549 11.7278 70.8315 11.815 70.9769 11.9261C71.1224 12.0379 71.2333 12.1709 71.3109 12.3245C71.3879 12.4782 71.4262 12.6493 71.4262 12.8367C71.4262 13.0286 71.3879 13.2013 71.3109 13.355C71.2333 13.5092 71.1181 13.6307 70.9634 13.7201V13.78C71.1752 13.8515 71.3405 13.9729 71.4595 14.1451C71.5786 14.3168 71.6384 14.5277 71.6384 14.7773C71.6384 14.9871 71.5974 15.1811 71.5156 15.3598C71.4342 15.538 71.313 15.6922 71.152 15.8214C70.9909 15.9505 70.7905 16.0536 70.5503 16.1293C70.3096 16.205 70.029 16.2432 69.7069 16.2432C69.513 16.2432 69.3299 16.2306 69.1575 16.2061C68.9857 16.1816 68.8225 16.1423 68.6684 16.0889C68.5138 16.0355 68.3657 15.9674 68.2246 15.8851C68.0835 15.8023 67.9445 15.7009 67.8082 15.5805L68.3307 14.8443C68.5601 15.0274 68.788 15.1565 69.0153 15.2323C69.2426 15.308 69.4946 15.3462 69.7726 15.3462C70.064 15.3462 70.281 15.2917 70.4243 15.1821C70.5676 15.0732 70.6398 14.9288 70.6398 14.7506C70.6398 14.4383 70.4383 14.2819 70.0376 14.2819H68.9194V13.4122H69.9315C70.0861 13.4122 70.2072 13.374 70.295 13.2983Z" fill="#393536"/>
<path d="M73.6078 14.6503L75.7503 11.6651H76.624V16.1494H75.6383V13.3315L73.6012 16.1494H72.6285V11.6651H73.6078V14.6503Z" fill="#393536"/>
<path d="M81.9216 15.2459H82.5636V15.52L82.4775 17.0862H81.5844L81.5446 16.1494H78.5477L78.4949 17.0862H77.5954L77.5426 15.5271V15.2524H77.7279C77.8205 15.2524 77.9132 15.2191 78.0058 15.1521C78.0984 15.0851 78.1755 14.9805 78.2374 14.8378C78.3559 14.5696 78.4421 14.2241 78.4949 13.8002C78.5477 13.3762 78.5746 12.908 78.5746 12.3947V11.6651H81.9216V15.2459ZM79.4342 14.1881C79.3594 14.6388 79.2581 14.9914 79.1305 15.2459H80.9295V12.562H79.5538C79.549 13.1958 79.5096 13.7375 79.4342 14.1881Z" fill="#393536"/>
<path d="M86.8162 12.5686H84.4813V13.4122H86.5647V14.289H84.4813V15.2459H86.9288V16.1494H83.5021V11.6651H86.8162V12.5686Z" fill="#393536"/>
<path d="M88.9852 13.4188H90.9232V11.6651H91.9217V16.1494H90.9232V14.349H88.9852V16.1494H87.9861V11.6651H88.9852V13.4188Z" fill="#393536"/>
<path d="M96.8528 12.5757H95.3377V16.1494H94.352V12.5757H92.8374V11.6651H96.8528V12.5757Z" fill="#393536"/>
<path d="M100.58 12.5991C100.379 12.525 100.155 12.4885 99.9079 12.4885C99.6919 12.4885 99.4969 12.5228 99.3224 12.592C99.1484 12.6613 98.9993 12.7593 98.8759 12.8869C98.7526 13.0139 98.6577 13.1642 98.5915 13.3386C98.5253 13.5125 98.4924 13.7021 98.4924 13.9076C98.4924 14.1217 98.5264 14.3157 98.5953 14.4895C98.6632 14.6634 98.759 14.8122 98.8829 14.9348C99.0057 15.0574 99.1538 15.1533 99.3257 15.2225C99.498 15.2917 99.6876 15.326 99.8944 15.326C100.146 15.326 100.381 15.2824 100.599 15.1958C100.818 15.1086 101.013 14.9827 101.185 14.8176L101.747 15.52C101.244 16.0023 100.609 16.2432 99.8417 16.2432C99.498 16.2432 99.1824 16.1881 98.8958 16.0792C98.6093 15.9696 98.3637 15.8138 98.158 15.6105C97.9533 15.4078 97.7933 15.1631 97.6785 14.8775C97.5643 14.592 97.5067 14.2732 97.5067 13.9206C97.5067 13.5996 97.5633 13.2962 97.6753 13.0105C97.7879 12.725 97.95 12.4749 98.1617 12.2607C98.3734 12.0466 98.6287 11.8782 98.9292 11.7556C99.2287 11.633 99.568 11.5714 99.9478 11.5714C100.292 11.5714 100.607 11.6243 100.894 11.7289C101.18 11.8335 101.436 11.9866 101.661 12.1872L101.112 12.9169C100.958 12.7784 100.78 12.6727 100.58 12.5991Z" fill="#393536"/>
<path d="M103.645 13.3719L104.128 13.3185L105.378 11.6651H106.602L104.954 13.7599L106.761 16.1494H105.484L104.134 14.2351H103.645V16.1494H102.666V11.6651H103.645V13.3719Z" fill="#393536"/>
<path d="M108.642 14.6503L110.785 11.6651H111.658V16.1494H110.672V13.3315L108.635 16.1494H107.662V11.6651H108.642V14.6503Z" fill="#393536"/>
<path d="M114.829 13.2651H114.896L115.776 11.6651H116.999L115.583 13.8738L117.138 16.1494H115.855L114.863 14.4225H114.796L113.818 16.1494H112.541L114.096 13.8204L112.68 11.6651H113.917L114.829 13.2651Z" fill="#393536"/>
<path d="M123.638 12.5757H121.276V16.1494H120.284V11.6651H123.638V12.5757Z" fill="#393536"/>
<path d="M127.226 11.7823C127.442 11.8608 127.628 11.9697 127.784 12.1104C127.941 12.2509 128.061 12.4204 128.145 12.6188C128.229 12.8177 128.271 13.0395 128.271 13.2847C128.271 13.5435 128.224 13.7746 128.129 13.9773C128.034 14.1806 127.904 14.3522 127.738 14.4928C127.573 14.6334 127.378 14.7408 127.153 14.8144C126.928 14.8879 126.685 14.9244 126.425 14.9244H125.525V16.1494H124.533V11.6651H126.504C126.769 11.6651 127.01 11.7043 127.226 11.7823ZM126.425 14.0345C126.69 14.0345 126.897 13.9675 127.047 13.8334C127.197 13.6999 127.272 13.519 127.272 13.2918C127.272 13.0684 127.205 12.8913 127.07 12.7593C126.935 12.6281 126.734 12.5621 126.465 12.5621H125.525V14.0345H126.425Z" fill="#393536"/>
<path d="M133.327 16.1494H132.229L131.892 15.259H129.993L129.662 16.1494H128.583L130.403 11.6586H131.494L133.327 16.1494ZM131.567 14.3757L130.978 12.6695H130.913L130.317 14.3757H131.567Z" fill="#393536"/>
<path d="M135.228 13.4188H137.166V11.6651H138.165V16.1494H137.166V14.349H135.228V16.1494H134.229V11.6651H135.228V13.4188Z" fill="#393536"/>
<path d="M143.096 12.5757H141.581V16.1494H140.596V12.5757H139.081V11.6651H143.096V12.5757Z" fill="#393536"/>
<path d="M147.058 11.749C147.349 11.8673 147.597 12.0313 147.802 12.2411C148.007 12.4504 148.167 12.6972 148.281 12.9806C148.396 13.2634 148.453 13.5724 148.453 13.9076C148.453 14.2285 148.396 14.5309 148.281 14.8144C148.167 15.0977 148.006 15.3451 147.798 15.5571C147.591 15.769 147.344 15.9364 147.054 16.059C146.765 16.1816 146.447 16.2432 146.098 16.2432C145.755 16.2432 145.439 16.1838 145.152 16.0655C144.866 15.9473 144.618 15.7833 144.408 15.574C144.199 15.3642 144.036 15.1162 143.922 14.8307C143.808 14.5451 143.75 14.2373 143.75 13.9076C143.75 13.586 143.808 13.2825 143.922 12.997C144.036 12.7114 144.199 12.464 144.408 12.2542C144.618 12.0444 144.866 11.8782 145.152 11.7556C145.439 11.633 145.755 11.5714 146.098 11.5714C146.447 11.5714 146.766 11.6308 147.058 11.749ZM145.526 12.5823C145.357 12.658 145.213 12.7604 145.096 12.8901C144.98 13.0193 144.89 13.1713 144.828 13.3451C144.767 13.519 144.736 13.7065 144.736 13.9076C144.736 14.1081 144.767 14.2966 144.828 14.4727C144.89 14.6492 144.981 14.8018 145.1 14.9315C145.219 15.0607 145.362 15.162 145.53 15.2356C145.698 15.3092 145.887 15.3462 146.098 15.3462C146.315 15.3462 146.508 15.308 146.677 15.2323C146.847 15.1565 146.99 15.053 147.107 14.9212C147.224 14.7898 147.312 14.6367 147.372 14.4629C147.431 14.289 147.461 14.1037 147.461 13.9076C147.461 13.7021 147.43 13.5114 147.368 13.3348C147.307 13.1588 147.218 13.0062 147.101 12.8765C146.984 12.7474 146.84 12.6471 146.67 12.5757C146.501 12.5043 146.31 12.4684 146.098 12.4684C145.887 12.4684 145.696 12.5065 145.526 12.5823Z" fill="#393536"/>
<path d="M152.546 11.9932C152.813 12.2117 152.946 12.5109 152.946 12.8902C152.946 13.0776 152.908 13.2449 152.831 13.392C152.754 13.5392 152.649 13.6487 152.517 13.7201V13.78C152.733 13.8515 152.905 13.98 153.036 14.1648C153.166 14.3501 153.231 14.5653 153.231 14.8111C153.231 14.9937 153.199 15.1664 153.135 15.3293C153.071 15.4923 152.972 15.6339 152.838 15.7544C152.703 15.8748 152.532 15.9707 152.325 16.0421C152.117 16.1135 151.872 16.1494 151.59 16.1494H149.448V11.6651H151.405C151.899 11.6651 152.28 11.7747 152.546 11.9932ZM151.445 13.4324C151.613 13.4324 151.744 13.391 151.838 13.3081C151.933 13.2259 151.981 13.113 151.981 12.9703C151.981 12.6716 151.791 12.5218 151.412 12.5218H150.433V13.4324H151.445ZM151.604 15.2928C152.04 15.2928 152.259 15.1163 152.259 14.7642C152.259 14.5942 152.201 14.4661 152.087 14.3789C151.972 14.2923 151.809 14.2487 151.597 14.2487H150.433V15.2928H151.604Z" fill="#393536"/>
<path d="M28.1683 5.52392H25.9697H23.2559H15.1308C13.8104 5.52392 12.631 6.35941 12.1794 7.61476L7.1282 21.6558C6.67483 22.9074 5.49774 23.7402 4.17969 23.7402H6.37829H8.70023H17.2172C18.5376 23.7402 19.717 22.9047 20.1685 21.6494L25.22 7.6077C25.6736 6.3565 26.8505 5.52392 28.1683 5.52392Z" fill="#CCA464"/>
<path d="M11.2574 7.27512C11.8479 5.63385 13.4045 4.53106 15.1309 4.53106H16.4321L17.1836 2.442C17.5541 1.42019 18.5152 0.7402 19.5914 0.7402H17.7958H15.5795H8.94375C7.86537 0.7402 6.90215 1.4226 6.53331 2.44774L2.40807 13.915C2.0379 14.9371 1.07648 15.6174 0 15.6174H1.7956H3.6919H8.25631L11.2574 7.27512Z" fill="#E0D3AD"/>
</svg>
