<svg width="260" height="100" viewBox="0 0 260 100" fill="none" xmlns="http://www.w3.org/2000/svg">
<mask id="mask0_261_2135" style="mask-type:luminance" maskUnits="userSpaceOnUse" x="10" y="19" width="240" height="62">
<path d="M250 19H10V80.2766H250V19Z" fill="white"/>
</mask>
<g mask="url(#mask0_261_2135)">
<mask id="mask1_261_2135" style="mask-type:luminance" maskUnits="userSpaceOnUse" x="12" y="36" width="236" height="36">
<path d="M247.447 36.8724H12.553V71.1278H247.447V36.8724Z" fill="white"/>
</mask>
<g mask="url(#mask1_261_2135)">
<path d="M21.8362 42.8564C26.8814 42.8564 30.9341 46.7032 30.9341 51.9178C30.9341 57.0469 26.7987 60.9793 22.0843 60.9793C19.8512 60.9793 17.7007 60.2956 16.1292 58.4146H15.9638V71.5794H12.5728V53.2855C12.5728 46.9597 16.1292 42.8564 21.8362 42.8564ZM21.7534 57.902C25.0618 57.902 27.3777 55.1665 27.3777 51.8323C27.3777 48.5838 25.1445 45.8483 21.7534 45.8483C18.3624 45.8483 16.0465 48.4983 16.0465 51.8323C16.0465 55.1665 18.4451 57.902 21.7534 57.902Z" fill="#8C64D8"/>
<path d="M34.0774 51.9178C34.0774 46.7032 38.2955 42.8564 43.2582 42.8564C48.2206 42.8564 52.4387 46.7032 52.4387 51.9178C52.4387 57.1324 48.2206 60.9793 43.2582 60.9793C38.2955 60.9793 34.0774 57.1324 34.0774 51.9178ZM43.2582 57.902C46.6491 57.902 48.8824 55.2517 48.8824 51.9178C48.8824 48.5838 46.5664 45.9339 43.2582 45.9339C39.9498 45.9339 37.634 48.5838 37.634 51.9178C37.634 55.2517 39.867 57.902 43.2582 57.902Z" fill="#8C64D8"/>
<path d="M64.8453 60.9793C59.5517 60.9793 55.5818 57.1324 55.5818 51.9178C55.5818 46.7032 59.469 42.8564 64.7623 42.8564C68.8152 42.8564 72.537 45.0791 73.5297 49.4389H70.0558C69.2289 47.1306 67.161 45.9339 64.8453 45.9339C61.2887 45.9339 59.1384 48.6694 59.1384 52.0033C59.1384 55.3373 61.3714 57.9872 64.928 57.9872C67.2437 57.9872 69.3116 56.8761 70.1386 54.3969H73.6124C72.3716 58.8423 68.7325 60.9793 64.8453 60.9793Z" fill="#8C64D8"/>
<path d="M86.1013 58.4999L80.5596 46.5319H80.4769V60.6372H77.2515V43.198H82.3793L87.8383 55.0805H87.921L93.3797 43.198H98.5078V60.5517H95.2821V46.5319H95.1994L89.6577 58.4999H86.1013Z" fill="#8C64D8"/>
<path d="M102.147 51.9178C102.147 46.7032 106.365 42.8564 111.328 42.8564C116.29 42.8564 120.509 46.7032 120.509 51.9178C120.509 57.1324 116.29 60.9793 111.328 60.9793C106.365 60.9793 102.147 57.1324 102.147 51.9178ZM111.41 57.902C114.802 57.902 117.035 55.2517 117.035 51.9178C117.035 48.5838 114.719 45.9339 111.41 45.9339C108.019 45.9339 105.786 48.5838 105.786 51.9178C105.704 55.2517 108.019 57.902 111.41 57.902Z" fill="#8C64D8"/>
<path d="M122.245 60.7228V57.1322H122.328C122.99 57.1322 123.734 56.8759 124.23 56.2774C124.892 55.5934 125.14 54.2257 125.471 52.345L125.967 49.524C126.546 46.3611 127.622 43.1126 132.253 43.1126H138.787V60.5517H135.396V46.3611H132.749C130.103 46.3611 129.606 47.1303 128.945 50.8064L128.531 53.3708C128.118 55.7645 127.539 57.8162 126.381 59.0984C125.471 60.1243 124.23 60.6372 122.494 60.6372H122.245V60.7228Z" fill="#8C64D8"/>
<path d="M142.592 51.9178C142.592 46.7032 146.81 42.8564 151.773 42.8564C156.735 42.8564 160.953 46.7032 160.953 51.9178C160.953 57.1324 156.735 60.9793 151.773 60.9793C146.81 60.9793 142.592 57.1324 142.592 51.9178ZM151.773 57.902C155.163 57.902 157.397 55.2517 157.397 51.9178C157.397 48.5838 155.081 45.9339 151.773 45.9339C148.381 45.9339 146.148 48.5838 146.148 51.9178C146.148 55.2517 148.464 57.902 151.773 57.902Z" fill="#8C64D8"/>
<path d="M164.923 64.826H161.698V57.3888H163.848C164.84 56.2774 165.337 54.5675 165.75 52.6016L166.495 49.3531C167.156 46.2755 168.48 43.1126 172.615 43.1126H179.15V57.3888H181.548V64.826H178.321V60.6372H164.84V64.826H164.923ZM175.84 57.4743V46.3611H172.698C170.63 46.3611 169.968 48.0709 169.555 49.8661L168.81 53.1998C168.397 55.0807 167.818 56.6193 167.156 57.2177V57.4743H175.84Z" fill="#8C64D8"/>
<path d="M193.293 60.9794C187.916 60.9794 184.029 57.1325 184.029 51.9178C184.029 46.7032 187.916 42.8564 193.128 42.8564C197.18 42.8564 201.977 45.592 201.977 52.1744V52.8582H187.337C187.668 55.7647 189.901 57.902 193.209 57.902C195.194 57.902 197.511 57.1325 198.173 55.4228H201.646C200.654 59.2697 196.767 60.9794 193.293 60.9794ZM187.503 36.8724H190.976V40.4628H187.503V36.8724ZM198.586 50.2082C198.09 47.558 196.105 45.8484 193.128 45.8484C190.232 45.8484 188.164 47.7291 187.585 50.2082H198.586ZM195.03 36.8724H198.503V40.4628H195.03V36.8724Z" fill="#8C64D8"/>
<path d="M217.94 43.198V50.1224H220.752L224.722 43.198H228.443L223.481 51.4902L228.774 60.5517H224.97L220.752 53.1998H217.857V60.5517H214.713V53.1998H211.901L207.684 60.5517H203.879L209.172 51.4902L204.21 43.198H207.932L211.901 50.1224H214.713V43.198H217.94Z" fill="#8C64D8"/>
<path d="M231.174 52.7724L231.091 43.198H234.482V48.1562H234.564C235.97 46.361 237.79 45.506 239.94 45.506C244.075 45.506 247.385 48.6691 247.385 53.1142C247.385 57.6451 243.994 60.9791 239.279 60.9791C234.647 60.9791 231.174 57.5596 231.174 52.7724ZM239.279 57.9015C241.925 57.9015 243.91 55.9353 243.91 53.2853C243.91 50.6353 241.925 48.5836 239.279 48.5836C236.632 48.5836 234.73 50.5498 234.73 53.2853C234.73 56.0208 236.632 57.9015 239.279 57.9015Z" fill="#8C64D8"/>
</g>
</g>
</svg>
