<svg width="40" height="40" viewBox="0 0 40 40" fill="none" xmlns="http://www.w3.org/2000/svg">
<rect width="40" height="40" rx="20" fill="#DEE4FE"/>
<path d="M20 23.75C24.8325 23.75 28.75 19.8325 28.75 15C28.75 10.1675 24.8325 6.25 20 6.25C15.1675 6.25 11.25 10.1675 11.25 15C11.25 19.8325 15.1675 23.75 20 23.75Z" fill="#171717"/>
<path d="M19.9999 1.25C17.1672 1.24423 14.402 2.1145 12.0831 3.74158C9.76428 5.36866 8.00527 7.67294 7.0471 10.3387C6.08893 13.0045 5.97848 15.9013 6.73087 18.6323C7.48327 21.3633 9.0617 23.7948 11.2499 25.5937V37.5C11.2486 37.7133 11.3027 37.9233 11.4067 38.1095C11.5108 38.2957 11.6613 38.4518 11.8437 38.5625C12.0245 38.6762 12.2315 38.7416 12.4449 38.7526C12.6582 38.7635 12.8709 38.7196 13.0624 38.625L19.9999 35.1406L26.9374 38.625C27.1148 38.7034 27.306 38.7459 27.4999 38.75C27.8314 38.75 28.1494 38.6183 28.3838 38.3839C28.6182 38.1495 28.7499 37.8315 28.7499 37.5V25.5937C30.9381 23.7948 32.5165 21.3633 33.2689 18.6323C34.0213 15.9013 33.9109 13.0045 32.9527 10.3387C31.9945 7.67294 30.2355 5.36866 27.9167 3.74158C25.5979 2.1145 22.8326 1.24423 19.9999 1.25ZM19.9999 26.25C17.7749 26.25 15.5998 25.5902 13.7497 24.354C11.8997 23.1179 10.4577 21.3609 9.60626 19.3052C8.75478 17.2495 8.53199 14.9875 8.96607 12.8052C9.40016 10.6229 10.4716 8.61839 12.045 7.04505C13.6183 5.47171 15.6229 4.40025 17.8051 3.96616C19.9874 3.53208 22.2494 3.75487 24.3051 4.60635C26.3608 5.45784 28.1178 6.89978 29.3539 8.74983C30.5901 10.5999 31.2499 12.775 31.2499 15C31.2458 17.9824 30.0592 20.8415 27.9503 22.9504C25.8414 25.0593 22.9823 26.2459 19.9999 26.25Z" fill="#171717"/>
</svg>
