<svg width="178" height="26" fill="none" xmlns="http://www.w3.org/2000/svg"><path d="M42.74 12.422h-3.48V8.058h-4.694v4.364h-3.48V.927h3.48V5.11h4.694V.927h3.48v11.495ZM52.682 10.348h-4.727l-.703 2.063H43.84L47.989.915h4.807L56.9 12.411h-3.515l-.703-2.063Zm-3.786-2.835h2.811l-1.394-4.138-1.417 4.138ZM67.477 12.094c-.692.283-1.95.555-3.628.555-4.648 0-6.711-2.12-6.711-5.827C57.138 2.91 59.156.7 64.12.7c1.53 0 2.744.317 3.356.476v3.038c-.816-.26-2.018-.453-2.812-.453-2.607 0-3.843.691-3.843 2.936 0 2.052 1.168 2.902 3.843 2.902.987 0 1.894-.215 2.823-.578v3.072h-.011ZM75.73 12.422h-3.48V3.976h-3.617V.926h10.702v3.05H75.73v8.446ZM87.249 10.348H82.52l-.703 2.063h-3.412L82.556.915h4.806l4.104 11.496H87.95l-.702-2.063Zm-3.776-2.835h2.8L84.88 3.375l-1.406 4.138ZM92.554 12.422V.927h6.224c2.857 0 4.093 1.054 4.093 2.936 0 1.417-.817 2.279-2.392 2.562v.045c1.938.068 2.743 1.259 2.743 2.563 0 1.859-.998 3.378-4.569 3.378h-6.099v.011Zm3.48-6.915h1.656c1.315 0 1.757-.318 1.757-1.032 0-.669-.408-.94-1.621-.94h-1.791v1.972Zm0 4.308h1.712c1.383 0 1.905-.227 1.905-1.02 0-.85-.544-1.066-1.86-1.066h-1.757v2.086ZM116.407 12.422h-3.481V8.058h-4.693v4.364h-3.48V.927h3.48V5.11h4.693V.927h3.481v11.495ZM130.193 12.422h-3.47V5.314l-4.648 7.108h-3.65V.927h3.48v7.108l4.637-7.108h3.651v11.495ZM135.725 6.3 139.75.927h3.956L139.251 6.3l4.784 6.122h-4.104l-4.206-5.566v5.566h-3.48V.927h3.48V6.3ZM146.846 12.649c-1.201 0-1.984-.669-1.984-1.712 0-1.065.703-1.712 1.984-1.712 1.236 0 2.052.692 2.052 1.712 0 1.077-.737 1.712-2.052 1.712ZM154.181 12.422h-3.48V.927h5.26c3.435 0 5.158 1.315 5.158 4.092 0 2.755-1.609 4.365-5.453 4.365h-1.473v3.038h-.012Zm-.09-5.895h1.575c1.395 0 1.894-.465 1.894-1.383 0-.964-.488-1.36-1.939-1.36h-1.53v2.743ZM171.787 12.649h-3.469v-1.111h-.317c-3.821 0-5.895-1.69-5.895-4.875 0-3.174 2.188-4.909 5.884-4.909h.328V.7h3.469v1.054h.318c3.809 0 5.895 1.712 5.895 4.91 0 3.185-2.199 4.874-5.895 4.874h-.318v1.111Zm-3.355-3.707v-4.58h-.295c-1.576 0-2.347.578-2.347 2.301 0 1.723.817 2.279 2.37 2.279h.272Zm3.219 0h.284c1.576 0 2.381-.794 2.381-2.279 0-1.746-.76-2.301-2.381-2.301h-.284v4.58ZM12.346.904C4.387.904 0 4.884 0 11.515c0 6.632 4.898 10.612 12.346 10.612 8.162 0 12.754-3.98 12.754-10.612S19.998.905 12.346.905Zm.907 4.467a2.48 2.48 0 0 1 3.378-.907 2.48 2.48 0 0 1 .907 3.378 2.48 2.48 0 0 1-3.378.907 2.457 2.457 0 0 1-.907-3.378Zm6.541 7.992a.737.737 0 0 1-.43.352l-4.105.997-1.247 3.855a.771.771 0 0 1-1.031.385.729.729 0 0 1-.306-.25l-2.132-3.593-4.183-.045a.779.779 0 0 1-.544-1.236l2.72-3.015-1.178-4.06a.775.775 0 0 1 .6-.917.761.761 0 0 1 .545.09l1.519 1.53a16.554 16.554 0 0 0 7.686 4.377l1.814.453a.801.801 0 0 1 .272 1.077Z" fill="#008435"/><path d="M83.825 22.773H82.43v-.986h-2.8v.986h-1.406v-2.2h.51c.34-.544.477-1.473.522-2.46l.011-.408h3.866v2.869h.68v2.199h.012Zm-2.2-2.188V18.93h-1.02c0 .045-.011.204-.011.226-.057.613-.182 1.1-.363 1.429h1.394ZM84.233 19.746c0-1.428.998-2.143 2.562-2.143 1.599 0 2.562.692 2.562 2.143 0 1.428-.93 2.143-2.562 2.143-1.621 0-2.562-.635-2.562-2.143Zm3.56 0c0-.714-.33-.998-.987-.998-.635 0-.986.295-.986.998 0 .68.386.998.986.998.647 0 .987-.295.987-.998ZM90.978 18.59c.261-.375.828-.737 1.814-.737 1.485 0 2.245.737 2.245 1.995 0 1.462-1.123 2.052-2.54 2.052-1.213 0-2.63-.408-2.63-2.619 0-2.596 1.225-3.117 3.027-3.265.953-.08 1.293-.136 1.655-.26v1.235c-.26.113-.714.204-1.405.26-1.248.103-2.143.273-2.188 1.339h.022Zm1.52 2.154c.69 0 .963-.409.963-.896 0-.488-.26-.862-.986-.862-.737 0-.998.397-.998.862.011.487.272.896 1.02.896ZM97.202 23.464h-1.519v-5.747h1.474v.578h.011c.295-.386.771-.658 1.553-.658 1.259 0 1.996.601 1.996 2.086 0 1.247-.658 2.143-2.075 2.143-.714 0-1.202-.295-1.44-.567h-.011v2.165h.011Zm1.939-3.752c0-.646-.329-.93-.975-.93-.635 0-.964.363-.964 1.01 0 .589.363.929.987.929.657 0 .952-.317.952-1.01ZM101.193 19.746c0-1.428.997-2.143 2.562-2.143 1.598 0 2.562.692 2.562 2.143 0 1.428-.93 2.143-2.562 2.143-1.621 0-2.562-.635-2.562-2.143Zm3.548 0c0-.714-.329-.998-.986-.998-.635 0-.986.295-.986.998 0 .68.385.998.986.998.646 0 .986-.295.986-.998Z" fill="#540575"/><path d="M91.59 22.909c-.351-.374-.816-.363-1.27.057l-.702.703-.703-.703c-.454-.42-.918-.431-1.27-.057-.328.351-.294.828.08 1.213 0 0 .17.17.215.227a2.343 2.343 0 0 0 1.666.691c.601 0 1.214-.226 1.667-.691.057-.057.215-.227.215-.227.409-.397.443-.873.103-1.213Z" fill="#FF6614"/><path d="M30.814 21.084c.215.068.532.158 1.02.158 1.134 0 1.598-.396 1.655-1.28h-1.972v-.59h1.95c-.103-.805-.601-1.122-1.6-1.122-.475 0-.838.09-1.03.18v-.611c.215-.091.555-.182 1.167-.182 1.496 0 2.222.726 2.222 2.052 0 1.417-.873 2.166-2.324 2.166-.6 0-.884-.091-1.1-.16v-.611h.012ZM35.926 19.599l1.973-1.894h.907l-2.075 1.916 2.29 2.166h-.93l-2.165-2.041v2.04h-.68v-4.08h.68v1.893ZM39.43 19.746c0-1.338.714-2.109 2.086-2.109 1.405 0 2.086.726 2.086 2.109 0 1.315-.749 2.109-2.086 2.109-1.406 0-2.086-.737-2.086-2.11Zm3.435 0c0-1.02-.386-1.496-1.35-1.496-.861 0-1.349.476-1.349 1.496 0 1.032.522 1.496 1.35 1.496.907 0 1.349-.464 1.349-1.496ZM47.728 21.673c-.215.09-.623.182-1.236.182-1.462 0-2.142-.794-2.142-2.132 0-1.349.77-2.074 2.188-2.074.578 0 .884.09 1.11.158v.613a3.313 3.313 0 0 0-1.03-.16c-.987 0-1.543.409-1.543 1.407 0 1.1.601 1.587 1.599 1.587.476 0 .861-.091 1.043-.182v.601h.011ZM48.703 21.787v-4.082h.68v2.596l-.022.533h.011l.283-.42 2.154-2.72h.647v4.081h-.68v-2.664l.022-.476h-.011l-.272.385-2.166 2.755h-.646v.012ZM56.854 21.673c-.215.09-.623.182-1.235.182-1.463 0-2.143-.794-2.143-2.132 0-1.349.77-2.074 2.188-2.074.578 0 .884.09 1.111.158v.613a3.313 3.313 0 0 0-1.032-.16c-.986 0-1.541.409-1.541 1.407 0 1.1.6 1.587 1.598 1.587.476 0 .862-.091 1.043-.182v.601h.011ZM59.496 21.787h-.68v-3.47H57.25v-.612h3.82v.613h-1.564v3.469h-.011ZM65.085 21.582c-.25.148-.692.273-1.292.273-1.588 0-2.302-.749-2.302-2.12 0-1.282.726-2.086 1.995-2.086 1.452 0 1.95.838 1.95 2.052v.215h-3.22c.069.907.545 1.326 1.633 1.326.635 0 .964-.124 1.247-.283v.623h-.011ZM64.7 19.36c.022-.668-.34-1.1-1.18-1.1-.77 0-1.213.364-1.303 1.1H64.7ZM70.957 17.705v4.082h-.646v-2.8l.023-.556H70.3l-.227.555-1.077 2.143h-.612l-1.077-2.143-.227-.555h-.034l.023.555v2.812h-.646v-4.081h.94l1.35 2.743h.011l1.315-2.743h.918v-.012ZM75.458 21.787h-.59v-.624h-.01c-.261.397-.726.692-1.486.692-.907 0-1.474-.454-1.474-1.259 0-.827.567-1.236 1.826-1.236.476 0 .907.046 1.054.046v-.26c0-.636-.352-.885-1.156-.885-.42 0-.953.113-1.304.272v-.612a3.94 3.94 0 0 1 1.372-.261c1.405 0 1.768.487 1.768 1.666v2.46Zm-.669-1.86a9.11 9.11 0 0 0-.997-.045c-.873 0-1.157.272-1.157.669 0 .385.284.703.896.703.828 0 1.247-.408 1.247-1.043v-.284h.011Z" fill="#540575"/></svg>