<svg width="24" height="24" viewBox="0 0 24 24" fill="none" xmlns="http://www.w3.org/2000/svg">
<g clip-path="url(#clip0_17391_30780)">
<path d="M12 1.33395C14.1124 1.3334 16.1776 1.9593 17.9342 3.1325C19.6909 4.3057 21.0602 5.97349 21.869 7.92496C22.6778 9.87642 22.8897 12.0239 22.4779 14.0958C22.0661 16.1677 21.0492 18.071 19.5557 19.5649C18.0622 21.0588 16.1592 22.0762 14.0874 22.4885C12.0156 22.9008 9.86805 22.6895 7.91637 21.8812C5.96469 21.073 4.29654 19.7041 3.12288 17.9477C1.94923 16.1914 1.32279 14.1264 1.32279 12.014C1.32648 9.18306 2.45249 6.46912 4.45398 4.46711C6.45546 2.46511 9.1691 1.33838 12 1.33395ZM12 0C9.62721 1.6041e-06 7.30769 0.703438 5.33461 2.0214C3.36152 3.33936 1.82344 5.21268 0.914783 7.40458C0.00612259 9.59648 -0.232329 12.0086 0.229564 14.336C0.691456 16.6633 1.83296 18.8016 3.50979 20.4803C5.18663 22.1591 7.32352 23.3031 9.65037 23.7677C11.9772 24.2323 14.3896 23.9967 16.5825 23.0905C18.7755 22.1844 20.6506 20.6485 21.9708 18.677C23.2911 16.7054 23.9972 14.3867 24 12.014C24 8.83135 22.7357 5.77911 20.4853 3.52867C18.2348 1.27824 15.1826 0.0139535 12 0.0139535V0Z" fill="#8A61FF"/>
<path d="M14 10.3984H19" stroke="#8A61FF" stroke-width="1.4" stroke-linecap="round" stroke-linejoin="round"/>
<path d="M14 14H19" stroke="#8A61FF" stroke-width="1.4" stroke-linecap="round" stroke-linejoin="round"/>
<path d="M8.1207 12.8C9.44619 12.8 10.5207 11.7255 10.5207 10.4C10.5207 9.07452 9.44619 8 8.1207 8C6.79522 8 5.7207 9.07452 5.7207 10.4C5.7207 11.7255 6.79522 12.8 8.1207 12.8Z" stroke="#8A61FF" stroke-width="1.4" stroke-linecap="round" stroke-linejoin="round"/>
<path d="M5 15.7984C5.17056 15.1119 5.55796 14.5034 6.10114 14.0688C6.64433 13.6343 7.31238 13.3984 8 13.3984C8.68762 13.3984 9.35567 13.6343 9.89886 14.0688C10.442 14.5034 10.8294 15.1119 11 15.7984" stroke="#8A61FF" stroke-width="1.4" stroke-linecap="round" stroke-linejoin="round"/>
</g>
<defs>
<clipPath id="clip0_17391_30780">
<rect width="24" height="24" fill="white"/>
</clipPath>
</defs>
</svg>
