<svg width="24" height="24" viewBox="0 0 24 24" fill="none" xmlns="http://www.w3.org/2000/svg">
<g clip-path="url(#clip0_11614_40701)">
<path fill-rule="evenodd" clip-rule="evenodd" d="M8.25484 8.05859C10.0517 8.05859 11.489 9.32897 11.5097 11.3225C11.5079 11.9659 11.3155 12.5943 10.9567 13.1283C10.598 13.6624 10.0891 14.0782 9.49416 14.3231C8.89926 14.5681 8.24509 14.6313 7.61431 14.5047C6.98353 14.378 6.40442 14.0673 5.95012 13.6118C5.49583 13.1562 5.18674 12.5762 5.06188 11.9451C4.93703 11.314 5.00201 10.66 5.24862 10.0658C5.49524 9.47157 5.91243 8.96376 6.44749 8.60651C6.98255 8.24926 7.61148 8.0586 8.25484 8.05859ZM8.25484 9.86972C7.96836 9.86895 7.6881 9.9532 7.44954 10.1118C7.21097 10.2704 7.02482 10.4962 6.91465 10.7607C6.80449 11.0251 6.77527 11.3163 6.83069 11.5974C6.88611 11.8784 7.02368 12.1367 7.22597 12.3396C7.42827 12.5424 7.6862 12.6807 7.96711 12.7368C8.24803 12.793 8.53929 12.7646 8.80403 12.6551C9.06877 12.5457 9.2951 12.3601 9.45433 12.122C9.61357 11.8838 9.69857 11.6038 9.69857 11.3173C9.69754 10.9349 9.54506 10.5684 9.2745 10.2981C9.00393 10.0277 8.63731 9.87558 8.25484 9.8749" fill="#8CC63F"/>
<path fill-rule="evenodd" clip-rule="evenodd" d="M15.9325 8.43726C16.746 8.43726 17.5262 8.76042 18.1014 9.33564C18.6766 9.91087 18.9998 10.691 18.9998 11.5045C18.9998 12.318 18.6766 13.0982 18.1014 13.6734C17.5262 14.2486 16.746 14.5718 15.9325 14.5718C13.2404 14.5718 12.4577 12.9457 12.3206 10.6637C12.2585 9.62872 12.5651 8.51617 12.8226 7.86805C13.569 5.98836 15.7812 5.53946 18.4914 5V6.78914L16.0606 7.36481C16.0606 7.36481 14.6647 7.74256 14.5082 8.77749C14.9485 8.55189 15.4364 8.43479 15.9312 8.43597M15.7423 10.0362C15.4716 10.0352 15.2067 10.1146 14.9811 10.2642C14.7555 10.4139 14.5795 10.6272 14.4752 10.877C14.371 11.1269 14.3432 11.4021 14.3955 11.6677C14.4478 11.9333 14.5777 12.1774 14.7689 12.3691C14.96 12.5608 15.2038 12.6915 15.4693 12.7445C15.7348 12.7976 16.01 12.7706 16.2601 12.6671C16.5103 12.5635 16.7241 12.3881 16.8744 12.1629C17.0247 11.9378 17.1048 11.6731 17.1046 11.4023C17.1049 11.0406 16.9616 10.6935 16.7062 10.4373C16.4508 10.1812 16.1041 10.0369 15.7423 10.0362Z" fill="#8CC63F"/>
<path fill-rule="evenodd" clip-rule="evenodd" d="M5.90039 15.6645V17.0772C5.90039 17.0772 8.51358 18.6619 11.784 18.6619C15.0543 18.6619 17.8862 17.1095 17.8862 17.1095L17.8655 15.5312C17.8655 15.5312 12.1591 18.9452 5.90039 15.6606" fill="#8CC63F"/>
<path d="M11.9919 1.3324C14.1019 1.33185 16.1646 1.95703 17.9193 3.12886C19.6739 4.3007 21.0417 5.96656 21.8495 7.91576C22.6573 9.86496 22.869 12.0099 22.4577 14.0794C22.0464 16.1489 21.0306 18.05 19.5388 19.5421C18.047 21.0343 16.1463 22.0506 14.0769 22.4624C12.0075 22.8743 9.86245 22.6632 7.91304 21.8558C5.96363 21.0485 4.29741 19.6812 3.12512 17.9269C1.95282 16.1726 1.32711 14.11 1.32711 12C1.3308 9.17239 2.4555 6.46161 4.45466 4.46193C6.45382 2.46224 9.16431 1.33683 11.9919 1.3324ZM11.9919 0C9.62189 1.60224e-06 7.30507 0.702622 5.33427 2.01905C3.36348 3.33548 1.82718 5.20663 0.91958 7.39598C0.0119749 9.58534 -0.2262 11.9946 0.235157 14.3193C0.696513 16.644 1.83669 18.7797 3.51158 20.4566C5.18647 22.1334 7.32087 23.2761 9.64502 23.7401C11.9692 24.2042 14.3787 23.9688 16.5691 23.0637C18.7595 22.1587 20.6325 20.6246 21.9512 18.6553C23.2699 16.686 23.9752 14.37 23.978 12C23.978 8.8211 22.7152 5.7724 20.4673 3.52457C18.2195 1.27675 15.1708 0.0139373 11.9919 0.0139373V0Z" fill="#8CC63F"/>
</g>
<defs>
<clipPath id="clip0_11614_40701">
<rect width="24" height="24" fill="white"/>
</clipPath>
</defs>
</svg>
