<svg width="236" height="31" viewBox="0 0 236 31" fill="none" xmlns="http://www.w3.org/2000/svg">
    <g clip-path="url(#clip0_1_1675)">
        <path d="M90.8293 16.3596C89.0567 16.3596 87.8912 15.2522 87.8912 13.5508C87.8912 11.7953 88.9353 10.7419 90.8293 10.7419C92.6504 10.7419 93.8645 11.8763 93.8645 13.5508C93.8645 15.3062 92.7718 16.3596 90.8293 16.3596Z" fill="#F1491C"/>
        <path d="M112.093 20.4184H107.48V15.5841H102.575V20.4184H97.9614V6.64424H102.575V11.5057H107.48V6.64424H112.093V20.4184Z" fill="#522273"/>
        <path d="M123.165 14.8007C122.607 14.6927 121.903 14.6117 121.029 14.6117C119.329 14.6117 118.722 15.0437 118.722 15.827C118.722 16.5562 119.232 17.0965 120.737 17.0965C122.364 17.0965 123.165 16.3941 123.165 15.3139V14.8007ZM127.754 20.4184H123.432V18.4199H123.384C122.826 19.5 121.393 20.6884 118.868 20.6884C115.614 20.6884 114.06 19.122 114.06 16.4212C114.06 13.4772 116.002 12.1269 120.349 12.1269C121.514 12.1269 122.68 12.289 123.165 12.343V11.8838C123.165 10.8305 122.534 10.2363 120.3 10.2363C118.406 10.2363 116.536 10.8034 115.419 11.3436V7.40031C116.585 6.91426 118.698 6.29297 121.199 6.29297C125.764 6.29297 127.754 7.75142 127.754 12.0459V20.4184Z" fill="#522273"/>
        <path d="M134.82 16.8533H137.297C138.438 16.8533 138.948 16.6372 138.948 15.8001C138.948 14.8817 138.219 14.6927 137.055 14.6927H134.82V16.8533ZM134.82 12.181H136.981C137.952 12.181 138.632 12.0189 138.632 11.1545C138.632 10.3443 138.123 10.1823 137.078 10.1823H134.82V12.181ZM130.207 20.4184V6.64424H138.39C141.376 6.64424 143.148 7.61649 143.148 10.1012C143.148 12.1269 141.935 12.937 140.939 13.1532V13.2343C142.348 13.3963 143.756 14.1795 143.756 16.4752C143.756 19.095 141.91 20.4184 138.268 20.4184H130.207Z" fill="#522273"/>
        <path d="M145.601 20.4184V6.64424H150.214V12.505L150.117 14.5036H150.165L151.137 12.937L155.41 6.64424H159.854V20.4184H155.241V14.5036L155.338 12.559H155.289L154.318 14.1255L150.021 20.4184H145.601Z" fill="#522273"/>
        <path d="M166.969 20.4184H162.355V6.64424H172.966V10.9114H166.969V20.4184Z" fill="#522273"/>
        <path d="M182.387 14.8007C181.828 14.6927 181.124 14.6117 180.251 14.6117C178.55 14.6117 177.944 15.0437 177.944 15.827C177.944 16.5562 178.453 17.0965 179.958 17.0965C181.586 17.0965 182.387 16.3941 182.387 15.3139V14.8007ZM186.976 20.4184H182.655V18.4199H182.606C182.047 19.5 180.615 20.6884 178.089 20.6884C174.836 20.6884 173.282 19.122 173.282 16.4212C173.282 13.4772 175.224 12.1269 179.57 12.1269C180.736 12.1269 181.902 12.289 182.387 12.343V11.8838C182.387 10.8305 181.756 10.2363 179.522 10.2363C177.628 10.2363 175.758 10.8034 174.641 11.3436V7.40031C175.807 6.91426 177.919 6.29297 180.42 6.29297C184.985 6.29297 186.976 7.75142 186.976 12.0459V20.4184Z" fill="#522273"/>
        <path d="M197.586 20.4184H192.998V10.9114H188.481V6.64424H202.104V10.9114H197.586V20.4184Z" fill="#522273"/>
        <path d="M213.903 13.5314C213.903 11.1277 212.907 10.1553 210.893 10.1553C208.95 10.1553 207.882 11.1545 207.882 13.5314C207.882 15.8271 209.072 16.9073 210.893 16.9073C212.884 16.9073 213.903 15.8811 213.903 13.5314ZM203.098 13.5314C203.098 8.69677 206.134 6.29305 210.893 6.29305C215.749 6.29305 218.686 8.6159 218.686 13.5314C218.686 18.3658 215.87 20.7697 210.893 20.7697C205.964 20.7697 203.098 18.6088 203.098 13.5314Z" fill="#522273"/>
        <path d="M231.167 13.3963C231.167 11.2085 230.172 10.2633 228.206 10.2633C226.263 10.2633 225.266 11.5057 225.266 13.6663C225.266 15.6648 226.36 16.7992 228.277 16.7992C230.269 16.7992 231.167 15.746 231.167 13.3963ZM225.266 26.0902H220.654V6.64432H225.146V8.6159H225.194C226.093 7.29224 227.525 6.37399 229.93 6.37399C233.766 6.37399 236 8.39981 236 13.4233C236 17.6366 234.008 20.6885 229.687 20.6885C227.525 20.6885 226.019 19.6892 225.316 18.7709H225.266V26.0902Z" fill="#522273"/>
        <path d="M10.2086 16.1264V10.5823H7.14123C7.14123 10.7154 7.09323 11.2488 7.09323 11.3549C6.92545 13.381 6.54203 15.0335 5.99097 16.1264H10.2086ZM16.7985 23.456H12.6046V20.1511H4.19353V23.456H0V16.1264H1.53367C2.54021 14.3136 2.97149 11.222 3.09141 7.91653L3.13913 6.55758H14.7614V16.1264H16.7985V23.456Z" fill="#522273"/>
        <path d="M28.7095 13.3543C28.7095 10.9819 27.7273 10.0227 25.7383 10.0227C23.8214 10.0227 22.7667 11.0087 22.7667 13.3543C22.7667 15.6196 23.9409 16.6858 25.7383 16.6858C27.7032 16.6858 28.7095 15.6731 28.7095 13.3543ZM18.046 13.3543C18.046 8.58296 21.0413 6.21059 25.7383 6.21059C30.531 6.21059 33.4304 8.50327 33.4304 13.3543C33.4304 18.1257 30.6507 20.4973 25.7383 20.4973C20.8737 20.4973 18.046 18.3649 18.046 13.3543Z" fill="#522273"/>
        <path d="M42.8481 16.6858C44.933 16.6858 45.7478 15.3268 45.7478 13.7005C45.7478 12.0749 44.9569 10.8222 42.8004 10.8222C40.5954 10.8222 39.8048 12.1551 39.8048 13.7005C39.8048 15.3001 40.5954 16.6858 42.8481 16.6858ZM38.2711 9.46252C39.038 8.20988 40.7634 6.984 43.7348 6.984C48.1919 6.984 50.4687 9.4359 50.4687 13.6471C50.4687 18.5254 47.0898 20.4973 42.8481 20.4973C39.2058 20.4973 34.9403 19.1383 34.9403 11.7547C34.9403 3.09221 38.6305 1.33293 44.0224 0.852921C46.898 0.586917 47.9043 0.400453 49.0068 -2.24656e-05V4.13162C48.2159 4.50471 46.8499 4.82487 44.7892 5.01133C41.0509 5.35765 38.3429 5.91782 38.2231 9.46252H38.2711Z" fill="#522273"/>
        <path d="M62.7854 13.2206C62.7854 11.0621 61.8029 10.129 59.8618 10.129C57.9447 10.129 56.9621 11.3549 56.9621 13.4873C56.9621 15.4599 58.0405 16.5795 59.9338 16.5795C61.8988 16.5795 62.7854 15.5401 62.7854 13.2206ZM56.9621 25.7487H52.4092V6.55757H56.8426V8.50331H56.8903C57.777 7.19727 59.1908 6.29079 61.5631 6.29079C65.3495 6.29079 67.5542 8.29007 67.5542 13.2474C67.5542 17.4058 65.5889 20.4178 61.3236 20.4178C59.1908 20.4178 57.7052 19.4311 57.0102 18.5254H56.9621V25.7487Z" fill="#522273"/>
        <path d="M79.6076 13.3543C79.6076 10.9819 78.6254 10.0227 76.6364 10.0227C74.7194 10.0227 73.6647 11.0087 73.6647 13.3543C73.6647 15.6196 74.8389 16.6858 76.6364 16.6858C78.6013 16.6858 79.6076 15.6731 79.6076 13.3543ZM68.9441 13.3543C68.9441 8.58296 71.9394 6.21059 76.6364 6.21059C81.4291 6.21059 84.3285 8.50327 84.3285 13.3543C84.3285 18.1257 81.5487 20.4973 76.6364 20.4973C71.7717 20.4973 68.9441 18.3649 68.9441 13.3543Z" fill="#522273"/>
        <path d="M40.1408 23.886C39.0728 22.629 37.6859 22.6559 36.3297 24.0691C36.3293 24.0683 36.329 24.0674 36.3286 24.0667L34.232 26.3987L32.1353 24.0667C32.1349 24.0674 32.1346 24.0683 32.1342 24.0691C30.7779 22.6559 29.3912 22.629 28.3231 23.886C27.3282 25.0571 27.4361 26.6432 28.5642 27.952C28.5636 27.9534 29.0581 28.5074 29.2234 28.6917C30.6043 30.2325 32.4192 30.9995 34.232 31C36.0448 30.9995 37.8596 30.2325 39.2407 28.6917C39.406 28.5074 39.9004 27.9534 39.8996 27.952C41.0278 26.6432 41.1359 25.0571 40.1408 23.886Z" fill="#F1491C"/>
    </g>
    <defs>
        <clipPath id="clip0_1_1675">
            <rect width="236" height="31" fill="white"/>
        </clipPath>
    </defs>
</svg>
