<svg width="18" height="22" viewBox="0 0 18 22" fill="none" xmlns="http://www.w3.org/2000/svg">
<path fill-rule="evenodd" clip-rule="evenodd" d="M3.99967 7V10.4991L0 13.4989V18.9989H3.99967V19C3.99967 20.1046 4.89511 21 5.99967 21H8.00037V22.0011H10.0004V21H11.9997C13.1042 21 13.9997 20.1046 13.9997 19V18.9989H18V13.4989L13.9997 10.4986V7C13.9997 3.84392 12.0861 0 8.99967 0C5.91323 0 3.99967 3.84392 3.99967 7ZM10.0004 19.0011H12.0004V18.9989H12V8.99888L12.0004 8.99918V7.00112C12.0004 4.80835 10.603 2.00112 9.00044 2.00112C7.39792 2.00112 6.00044 4.80835 6.00044 7.00112V19.0011H8.00037V13.0011H10.0004V19.0011ZM2.00009 14.5011L4.00009 13.0011V17.0011H2.00009V14.5011ZM13.9996 17.0011V13.0011L15.9996 14.5011V17.0011H13.9996ZM9.00033 10.0013C7.89576 10.0013 7.00033 9.10587 7.00033 8.0013C7.00033 6.89673 7.89576 6.0013 9.00033 6.0013C10.1049 6.0013 11.0003 6.89673 11.0003 8.0013C11.0003 9.10587 10.1049 10.0013 9.00033 10.0013Z" fill="#000"/>
</svg>
