<svg width="20" height="20" viewBox="0 0 20 20" fill="none" xmlns="http://www.w3.org/2000/svg">
<path fill-rule="evenodd" clip-rule="evenodd" d="M10.998 9.89998V17H8.99805V9.89998C6.71581 9.43671 4.99805 7.41896 4.99805 5C4.99805 2.23858 7.23662 0 9.99805 0C12.7595 0 14.998 2.23858 14.998 5C14.998 7.41896 13.2803 9.43671 10.998 9.89998ZM6.99805 12.1573V14.1844C4.06523 14.5505 1.99805 15.3867 1.99805 16C1.99805 16.807 5.57719 18 9.99805 18C14.4189 18 17.998 16.807 17.998 16C17.998 15.3867 15.9309 14.5505 12.998 14.1844V12.1573C17.0539 12.6017 19.998 13.9678 19.998 16C19.998 18.5068 15.5183 20 9.99805 20C4.47778 20 -0.00195312 18.5068 -0.00195312 16C-0.00195312 13.9678 2.94217 12.6017 6.99805 12.1573ZM12.998 5C12.998 6.65685 11.6549 8 9.99805 8C8.34119 8 6.99805 6.65685 6.99805 5C6.99805 3.34315 8.34119 2 9.99805 2C11.6549 2 12.998 3.34315 12.998 5Z" fill="#878787"/>
</svg>
