<svg width="40" height="40" viewBox="0 0 40 40" fill="none" xmlns="http://www.w3.org/2000/svg">
<rect width="40" height="40" rx="20" fill="#DEE4FE"/>
<path d="M15.0938 27.6562C14.9389 27.6024 14.7749 27.58 14.6113 27.5902C14.4477 27.6005 14.2878 27.6432 14.1409 27.716C13.994 27.7887 13.863 27.8899 13.7557 28.0138C13.6483 28.1377 13.5667 28.2817 13.5156 28.4375C12.4844 31.5156 9.15625 32.4687 7.23438 32.7656C7.53125 30.8437 8.48438 27.5156 11.5625 26.4844C11.731 26.4435 11.8893 26.3681 12.0271 26.2628C12.1649 26.1575 12.2793 26.0247 12.363 25.8728C12.4467 25.721 12.4979 25.5533 12.5133 25.3806C12.5287 25.2079 12.508 25.0338 12.4525 24.8695C12.397 24.7052 12.3079 24.5543 12.1909 24.4262C12.0739 24.2982 11.9316 24.196 11.7729 24.1259C11.6143 24.0559 11.4428 24.0197 11.2694 24.0195C11.096 24.0193 10.9244 24.0553 10.7656 24.125C8.20313 24.9687 6.32812 27 5.32812 29.9844C4.88504 31.3268 4.64284 32.7273 4.60938 34.1406C4.60938 34.4721 4.74107 34.7901 4.97549 35.0245C5.20991 35.2589 5.52785 35.3906 5.85938 35.3906C7.27264 35.3572 8.6732 35.115 10.0156 34.6719C13 33.6719 15.0312 31.7969 15.875 29.2344C15.9288 29.0795 15.9512 28.9155 15.941 28.7519C15.9307 28.5883 15.888 28.4284 15.8153 28.2815C15.7426 28.1346 15.6413 28.0036 15.5174 27.8963C15.3935 27.7889 15.2495 27.7073 15.0938 27.6562Z" fill="#171717"/>
<path d="M35.5626 6.53125C35.4893 6.00181 35.2451 5.51078 34.8672 5.13285C34.4893 4.75491 33.9982 4.51075 33.4688 4.4375C31.7032 4.17187 27.1251 4.04687 22.6563 8.51562L21.2501 9.90625H11.6719C11.01 9.91076 10.3762 10.1744 9.90631 10.6406L4.85944 15.7031C4.53941 16.0214 4.31214 16.4208 4.20202 16.8585C4.09191 17.2962 4.10311 17.7557 4.23444 18.1875C4.36473 18.6224 4.61101 19.0137 4.94685 19.3192C5.28269 19.6248 5.6954 19.8331 6.14069 19.9219L12.3126 21.1562L18.8438 27.6875L20.0782 33.8594C20.1669 34.3047 20.3753 34.7174 20.6808 35.0532C20.9864 35.389 21.3776 35.6353 21.8126 35.7656C22.0448 35.84 22.2874 35.8769 22.5313 35.875C22.8599 35.8779 23.1857 35.8144 23.4891 35.6882C23.7926 35.562 24.0673 35.3757 24.2969 35.1406L29.3594 30.0937C29.8257 29.6239 30.0893 28.99 30.0938 28.3281V18.75L31.4844 17.3437C35.9532 12.875 35.8282 8.29687 35.5626 6.53125ZM11.6719 12.4062H18.7501L12.5157 18.6406L6.62506 17.4687L11.6719 12.4062ZM27.5938 28.3281L22.5313 33.375L21.3594 27.4844L27.5938 21.25V28.3281Z" fill="#171717"/>
</svg>
