<svg width="24" height="24" viewBox="0 0 24 24" fill="none" xmlns="http://www.w3.org/2000/svg">
<g clip-path="url(#clip0_11614_40624)">
<path d="M11.9981 24C8.81659 23.9963 5.76648 22.7308 3.51684 20.4812C1.26721 18.2316 0.00173553 15.1815 -0.00195312 12C0.00173553 8.81853 1.26721 5.76843 3.51684 3.51879C5.76648 1.26916 8.81659 0.00368866 11.9981 0C15.1771 0.00737387 18.2236 1.27447 20.4703 3.52371C22.7169 5.77294 23.9804 8.82094 23.9841 12C23.9804 15.1791 22.7169 18.2271 20.4703 20.4763C18.2236 22.7255 15.1771 23.9926 11.9981 24ZM11.9981 1.26272C9.15125 1.26567 6.42189 2.39786 4.4089 4.41086C2.39591 6.42385 1.26372 9.1532 1.26076 12C1.26372 14.8468 2.39591 17.5762 4.4089 19.5891C6.42189 21.6021 9.15125 22.7343 11.9981 22.7373C14.8449 22.7343 17.5742 21.6021 19.5872 19.5891C21.6002 17.5762 22.7324 14.8468 22.7353 12C22.7324 9.1532 21.6002 6.42385 19.5872 4.41086C17.5742 2.39786 14.8449 1.26567 11.9981 1.26272Z" fill="#1FB1EF"/>
<path d="M12.1008 13.2863C11.3888 13.2863 10.8086 12.7103 10.8086 12.0006C10.8086 11.2921 11.3888 10.7148 12.1008 10.7148C12.8141 10.7148 13.393 11.2921 13.393 12.0006C13.393 12.7103 12.8141 13.2863 12.1008 13.2863ZM12.1008 11.3577L12.0995 12.0006H12.1008V11.3577Z" fill="#1FB1EF"/>
<path d="M12.1011 21C9.58269 21 8.22461 16.3637 8.22461 12C8.22461 7.63629 9.58269 3 12.1011 3C14.6183 3 15.9777 7.63629 15.9777 12C15.9777 16.3637 14.6183 21 12.1011 21ZM12.1011 4.28571C11.0221 4.28571 9.51679 7.22104 9.51679 12C9.51679 16.7803 11.0221 19.7143 12.1011 19.7143C13.1802 19.7143 14.6855 16.7802 14.6855 12C14.6855 7.22118 13.1802 4.28571 12.1011 4.28571Z" fill="#1FB1EF"/>
<path d="M17.2496 17.6637C16.8646 17.6637 16.4472 17.6303 16.0001 17.5595C14.2453 17.2832 12.1727 16.4963 10.1621 15.3417C6.36564 13.1598 3.00856 9.67168 4.26714 7.5014C5.52831 5.33232 10.2422 6.47929 14.0386 8.66111C16.0493 9.81568 17.7704 11.2081 18.8883 12.584C20.1378 14.1204 20.5088 15.5116 19.9338 16.5014C19.4904 17.2664 18.5562 17.6637 17.2499 17.6637L17.2496 17.6637ZM5.38595 8.14429C4.84715 9.07514 6.64841 11.8394 10.8079 14.2283C12.6842 15.3056 14.5992 16.0373 16.2015 16.2893C17.539 16.4988 18.5404 16.3343 18.8143 15.8585C19.0894 15.3841 18.7329 14.439 17.8827 13.3925C16.8632 12.1364 15.2673 10.852 13.3925 9.77446C9.23317 7.38571 5.92741 7.21596 5.38617 8.14421L5.38595 8.14429Z" fill="#1FB1EF"/>
<path d="M6.9161 17.6601C5.7002 17.6601 4.74003 17.313 4.26713 16.4991C3.00855 14.3289 6.36578 10.8394 10.1621 8.65881C12.1727 7.50424 14.2453 6.71603 16.0012 6.44096C17.9653 6.13244 19.3609 6.50912 19.9332 7.4991C20.5081 8.48906 20.1374 9.88024 18.8877 11.4165C17.7701 12.7909 16.049 14.1846 14.0384 15.3394C11.6672 16.701 8.93833 17.6601 6.91588 17.6601L6.9161 17.6601ZM17.2587 7.62124C16.9396 7.62124 16.5855 7.6508 16.2017 7.71121C14.5995 7.96204 12.6831 8.69486 10.8082 9.77221C6.64884 12.1611 4.84754 14.9254 5.3862 15.8562C5.92629 16.7858 9.23173 16.6147 13.3925 14.226C15.2675 13.1473 16.8634 11.8629 17.8842 10.608C18.7332 9.56139 19.0898 8.6176 18.8145 8.14193C18.6181 7.80256 18.0509 7.62118 17.2587 7.62118L17.2587 7.62124ZM10.4851 9.2156H10.4981H10.4851Z" fill="#1FB1EF"/>
</g>
<defs>
<clipPath id="clip0_11614_40624">
<rect width="24" height="24" fill="white"/>
</clipPath>
</defs>
</svg>
