<svg width="32" height="32" viewBox="0 0 32 32" fill="none" xmlns="http://www.w3.org/2000/svg">
<path d="M24 18C20.6863 18 18 20.6863 18 24C18 27.3137 20.6863 30 24 30C27.3137 30 30 27.3137 30 24C30 20.6863 27.3137 18 24 18Z" fill="white"/>
<path d="M8 18C4.68629 18 2 20.6863 2 24C2 27.3137 4.68629 30 8 30C11.3137 30 14 27.3137 14 24C14 20.6863 11.3137 18 8 18Z" fill="white"/>
<path d="M24 2C20.6863 2 18 4.68629 18 8C18 11.3137 20.6863 14 24 14C27.3137 14 30 11.3137 30 8C30 4.68629 27.3137 2 24 2Z" fill="white"/>
<path d="M3 8H13" stroke="white" stroke-width="3" stroke-linecap="round" stroke-linejoin="round"/>
<path d="M8 3V13" stroke="white" stroke-width="3" stroke-linecap="round" stroke-linejoin="round"/>
</svg>
