<svg width="19" height="19" viewBox="0 0 19 19" fill="none" xmlns="http://www.w3.org/2000/svg">
    <path d="M18.9505 7.28835C18.8261 6.90362 18.4849 6.63036 18.0811 6.59398L12.5972 6.09603L10.4287 1.02047C10.2688 0.648497 9.90469 0.407715 9.5001 0.407715C9.09551 0.407715 8.73136 0.648497 8.57147 1.02134L6.40298 6.09603L0.918188 6.59398C0.515193 6.63123 0.174822 6.90362 0.0497196 7.28835C-0.0753828 7.67308 0.0401521 8.09506 0.345008 8.36107L4.4902 11.9964L3.26788 17.3808C3.17844 17.7767 3.3321 18.1859 3.66058 18.4233C3.83715 18.5509 4.04372 18.6158 4.25203 18.6158C4.43164 18.6158 4.6098 18.5674 4.76969 18.4717L9.5001 15.6445L14.2288 18.4717C14.5748 18.6799 15.011 18.6609 15.3387 18.4233C15.6674 18.1852 15.8209 17.7758 15.7314 17.3808L14.5091 11.9964L18.6543 8.36179C18.9592 8.09506 19.0756 7.6738 18.9505 7.28835V7.28835Z" fill="#878787"/>
</svg>
