<svg width="40" height="40" viewBox="0 0 40 40" fill="none" xmlns="http://www.w3.org/2000/svg">
<rect width="40" height="40" rx="20" fill="#DEE4FE"/>
<path d="M20 11.875C21.3597 11.875 22.6889 12.2782 23.8195 13.0336C24.9501 13.7891 25.8313 14.8628 26.3517 16.1191C26.872 17.3753 27.0082 18.7576 26.7429 20.0912C26.4776 21.4249 25.8228 22.6499 24.8613 23.6114C23.8999 24.5728 22.6748 25.2276 21.3412 25.4929C20.0076 25.7582 18.6253 25.622 17.369 25.1017C16.1128 24.5813 15.0391 23.7001 14.2836 22.5695C13.5282 21.439 13.125 20.1097 13.125 18.75C13.125 16.9266 13.8493 15.178 15.1386 13.8886C16.4279 12.5993 18.1766 11.875 20 11.875ZM27.5 10H30V12.5C30 12.8315 30.1317 13.1495 30.3661 13.3839C30.6005 13.6183 30.9185 13.75 31.25 13.75C31.5815 13.75 31.8994 13.6183 32.1339 13.3839C32.3683 13.1495 32.5 12.8315 32.5 12.5V10H35C35.3315 10 35.6494 9.8683 35.8839 9.63388C36.1183 9.39946 36.25 9.08152 36.25 8.75C36.25 8.41848 36.1183 8.10054 35.8839 7.86612C35.6494 7.6317 35.3315 7.5 35 7.5H32.5V5C32.5 4.66848 32.3683 4.35054 32.1339 4.11612C31.8994 3.8817 31.5815 3.75 31.25 3.75C30.9185 3.75 30.6005 3.8817 30.3661 4.11612C30.1317 4.35054 30 4.66848 30 5V7.5H27.5C27.1685 7.5 26.8505 7.6317 26.6161 7.86612C26.3817 8.10054 26.25 8.41848 26.25 8.75C26.25 9.08152 26.3817 9.39946 26.6161 9.63388C26.8505 9.8683 27.1685 10 27.5 10ZM34.625 16.4062C34.4621 16.4291 34.3054 16.4842 34.1641 16.5685C34.0228 16.6527 33.8998 16.7644 33.8022 16.8968C33.7047 17.0293 33.6346 17.1799 33.5962 17.3398C33.5577 17.4998 33.5515 17.6658 33.5781 17.8281C33.6903 18.5467 33.7477 19.2727 33.75 20C33.7546 23.3646 32.5197 26.6131 30.2812 29.125C29.2694 27.6736 27.9655 26.4495 26.4531 25.5312C24.7166 27.1949 22.4048 28.1236 20 28.1236C17.5952 28.1236 15.2833 27.1949 13.5469 25.5312C12.0345 26.4495 10.7306 27.6736 9.71873 29.125C7.96062 27.1432 6.81244 24.6958 6.41227 22.077C6.01209 19.4582 6.37696 16.7795 7.46301 14.3632C8.54905 11.9468 10.31 9.89565 12.5341 8.45634C14.7582 7.01703 17.3508 6.25087 20 6.25C20.7272 6.25227 21.4533 6.30972 22.1719 6.42187C22.4959 6.46628 22.8244 6.38193 23.0869 6.18694C23.3494 5.99194 23.5251 5.70182 23.5762 5.3788C23.6273 5.05579 23.5498 4.72561 23.3603 4.45908C23.1708 4.19256 22.8844 4.01092 22.5625 3.95312C21.7154 3.81501 20.8583 3.74707 20 3.75C16.7256 3.75114 13.528 4.74141 10.8262 6.59104C8.12429 8.44068 6.04421 11.0634 4.8585 14.1155C3.67279 17.1676 3.43676 20.5067 4.18135 23.6953C4.92594 26.8838 6.61641 29.7731 9.03123 31.9844L9.23435 32.1719C12.2051 34.7993 16.0341 36.2496 20 36.2496C23.9659 36.2496 27.7949 34.7993 30.7656 32.1719L30.9687 31.9844C32.6345 30.4643 33.9647 28.6132 34.8741 26.5495C35.7835 24.4859 36.2521 22.2551 36.25 20C36.2529 19.1417 36.185 18.2846 36.0469 17.4375C36.0222 17.276 35.9657 17.121 35.8806 16.9815C35.7955 16.842 35.6836 16.7207 35.5514 16.6248C35.4191 16.5289 35.2691 16.4602 35.1101 16.4226C34.9511 16.3851 34.7862 16.3796 34.625 16.4062Z" fill="#171717"/>
</svg>
