<svg width="18" height="20" viewBox="0 0 18 20" fill="none" xmlns="http://www.w3.org/2000/svg">
<path d="M15.0676 4.98094L14.6982 5.04573L15.0676 4.98094L14.9101 4.08334C14.7354 3.08719 13.8021 2.40913 12.8007 2.55077L11.8984 2.6784C11.5548 2.727 11.2081 2.61432 10.9587 2.37305L10.3037 1.73942C9.57679 1.03623 8.42321 1.03623 7.69632 1.73942L7.04134 2.37305C6.79194 2.61432 6.44516 2.727 6.10158 2.6784L5.19925 2.55077C4.19787 2.40913 3.26459 3.08719 3.08986 4.08333L2.9324 4.98094C2.87245 5.32272 2.65813 5.61771 2.3516 5.78035L1.54658 6.20747C0.653191 6.68148 0.296712 7.77861 0.740865 8.68721L1.14108 9.50594C1.29347 9.81769 1.29347 10.1823 1.14108 10.4941L0.740865 11.3128C0.296713 12.2214 0.65319 13.3185 1.54658 13.7925L2.3516 14.2197C2.65813 14.3823 2.87245 14.6773 2.9324 15.0191L3.08986 15.9167C3.26459 16.9128 4.19786 17.5909 5.19925 17.4492L6.10158 17.3216C6.44516 17.273 6.79194 17.3857 7.04134 17.6269L7.69632 18.2606C8.42321 18.9638 9.57679 18.9638 10.3037 18.2606L10.9587 17.6269C11.2081 17.3857 11.5548 17.273 11.8984 17.3216L12.8007 17.4492C13.8021 17.5909 14.7354 16.9128 14.9101 15.9167L15.0676 15.0191C15.1275 14.6773 15.3419 14.3823 15.6484 14.2197L16.4534 13.7925C17.3468 13.3185 17.7033 12.2214 17.2591 11.3128L16.8589 10.4941C16.7065 10.1823 16.7065 9.81769 16.8589 9.50594L17.2591 8.68721C17.7033 7.77861 17.3468 6.68148 16.4534 6.20747L15.6484 5.78035C15.3419 5.61771 15.1275 5.32272 15.0676 4.98094Z" fill="#43B760" stroke="white" stroke-width="0.75"/>
<path fill-rule="evenodd" clip-rule="evenodd" d="M13.3541 7.92526C13.5803 7.69962 13.5803 7.3328 13.3541 7.10716C13.1285 6.88094 12.7622 6.88094 12.536 7.10716L8.43076 11.0686L6.51511 9.15349C6.28947 8.92727 5.92265 8.92727 5.69701 9.15349C5.47079 9.37971 5.47079 9.74595 5.69701 9.97159L7.99278 12.2679C8.00204 12.2778 8.01072 12.2876 8.02055 12.2969C8.13337 12.4103 8.28149 12.4664 8.4296 12.4664C8.45737 12.4664 8.48515 12.4647 8.51292 12.4606C8.63268 12.4438 8.7484 12.3894 8.84039 12.2969C8.85022 12.2876 8.85948 12.2778 8.86816 12.2674L13.3541 7.92526Z" fill="white"/>
</svg>
